<?xml version="1.0" standalone="no"?>
<!DOCTYPE svg PUBLIC "-//W3C//DTD SVG 1.1//EN" "http://www.w3.org/Graphics/SVG/1.1/DTD/svg11.dtd">
<svg xmlns="http://www.w3.org/2000/svg">
<metadata>Generated by Fontastic.me</metadata>
<defs>
<font id="poulgilan" horiz-adv-x="512">
<font-face font-family="poulgilan" units-per-em="512" ascent="480" descent="-32"/>
<missing-glyph horiz-adv-x="512" />

<glyph glyph-name="arrow-left" unicode="&#57344;" d="M218 66c12-11 31-11 42 0 12 12 12 31 0 42l-118 118 312 0c16 0 30 14 30 30 0 16-14 30-30 30l-312 0 118 118c12 11 12 30 0 42-6 5-13 8-21 8-8 0-15-3-21-8l-190-190z"/>
<glyph glyph-name="arrow-right" unicode="&#57345;" d="M294 446c-12 11-31 11-42 0-12-12-12-31 0-42l118-118-312 0c-16 0-30-14-30-30 0-16 14-30 30-30l312 0-118-118c-12-11-12-30 0-42 6-6 13-8 21-8 7 0 15 2 21 8l190 190z"/>
<glyph glyph-name="arrow-down" unicode="&#57346;" d="M446 218c11 12 11 31 0 42-12 12-31 12-42 0l-118-118 0 312c0 16-14 30-30 30-16 0-30-14-30-30l0-312-118 118c-11 12-30 12-42 0-5-6-8-13-8-21 0-7 3-15 8-21l190-190z"/>
<glyph glyph-name="arrow-up" unicode="&#57347;" d="M66 294c-11-12-11-31 0-42 12-12 31-12 42 0l118 118 0-312c0-16 14-30 30-30 16 0 30 14 30 30l0 312 118-118c11-12 30-12 42 0 6 6 8 13 8 21 0 8-2 15-8 21l-190 190z"/>
<glyph glyph-name="10-sec" unicode="&#57348;" d="M252 492c-54-6-105-30-144-69-18-18-32-38-44-62-16-30-23-61-25-96-1-18 0-17-19-17-18 0-20-1-20-7 0-4 2-8 30-51 16-26 30-48 31-49 3-2 8-2 10 1 1 1 15 23 31 49 21 32 30 48 30 49 0 2-1 4-2 5-1 2-2 2-18 3-21 0-20-1-19 19 2 64 42 124 102 154 44 21 92 25 138 9 69-23 117-84 125-156 5-47-10-97-41-134-7-9-23-25-32-31-35-26-81-40-123-36-21 2-39 6-57 14-13 5-21 6-29 3-10-5-15-14-15-25 0-11 5-19 15-24 12-6 34-13 50-17 31-6 69-6 99 0 61 13 114 50 148 102 20 31 33 65 37 100 2 15 2 44 0 60-8 68-47 130-105 168-30 20-64 33-100 37-11 1-43 2-53 1z m-74-144c-10-4-16-12-16-23 0-11 7-21 18-23l5-1 0-60c0-66 0-63 5-69 11-13 31-10 38 4l3 6 0 148-3 6c-2 5-8 10-14 11-3 1-32 2-36 1z m125-1c-20-4-36-21-40-40-2-6-2-14-1-54 0-47 0-47 2-53 6-16 18-28 34-34 6-2 8-2 24-2 17 0 19 0 25 2 18 6 32 22 36 40 2 7 2 93 0 100 0 3-2 8-4 12-6 13-17 22-31 27-6 3-8 3-23 3-11 0-18 0-22-1z m31-47c4-3 4-4 4-44l0-40-2-2-3-3-10 0c-10 0-11 0-13 2l-2 3 0 80 2 3c2 2 3 2 13 2 6 0 10 0 11-1z"/>
<glyph glyph-name="about-us" unicode="&#57349;" d="M419 180l0 221c0 22-18 40-40 40l-126 0 0-143c0-33-27-60-60-60-33 0-60 27-60 60l0 86c0 11 9 20 20 20 11 0 20-9 20-20l0-86c0-11 9-20 20-20 11 0 20 9 20 20l0 154c0 11-9 20-20 20-9 0-17-7-19-15-3-10-12-17-21-16-1 0-1 0-2 0l-18 0c-22 0-40-18-40-40l0-321c0-22 18-40 40-40l246 0c22 0 40 18 40 40 0 11 9 20 20 20 11 0 20-9 20-20 0-44-36-80-80-80l-246 0c-44 0-80 36-80 80l0 321c0 44 36 80 80 80l7 0c11 19 31 31 53 31 23 0 42-13 53-31l133 0c44 0 80-36 80-80l0-221c0-11-9-20-20-20-11 0-20 9-20 20z m-266-60c-11 0-20-9-20-20 0-11 9-20 20-20l145 0c11 0 20 9 20 20 0 11-9 20-20 20z m225 59c0 11-9 20-20 20l-205 0c-11 0-20-9-20-20 0-11 9-20 20-20l205 0c11 0 20 9 20 20z m-20 98l-46 0c-11 0-20-9-20-20 0-11 9-20 20-20l46 0c11 0 20 9 20 20 0 11-9 20-20 20z m0 79l-46 0c-11 0-20-9-20-20 0-11 9-20 20-20l46 0c11 0 20 9 20 20 0 11-9 20-20 20z"/>
<glyph glyph-name="add-contact" unicode="&#57350;" d="M492 367c-11 0-20-9-20-20l0-267c0-17-11-31-25-37 0 5 0 11-1 17-9 43-33 82-67 110-16 13-34 23-53 31 21 19 35 47 35 78 0 57-47 104-104 104-57 0-104-47-104-104 0-31 13-59 35-78-20-7-38-18-55-31-34-28-58-67-67-110-1-6-1-12-1-17-14 6-25 20-25 37l0 352c0 22 18 40 40 40l210 0c11 0 20 9 20 20 0 11-9 20-20 20l-210 0c-44 0-80-36-80-80l0-352c0-44 36-80 80-80l352 0c44 0 80 36 80 80l0 267c0 11-9 20-20 20z m-235-24c35 0 64-29 64-64 0-35-29-64-64-64-35 0-64 29-64 64 0 35 29 64 64 64z m-150-299c-1 1-3 4-2 8 15 70 78 122 151 122 73 0 136-52 151-122 1-4-1-7-2-8-1-2-4-4-8-4l-282 0c-4 0-7 2-8 4z m221 378c-8 8-8 20 0 28 8 8 20 8 28 0l46-45c0-1 1-1 2-1 0 0 1 0 1 1l71 99c6 9 19 11 28 4 9-6 11-19 4-28l-71-99c0-1 0-1 0-1-8-9-19-15-31-16-1 0-2 0-3 0-11 0-21 4-29 12 0 0 0 0 0 0z"/>
<glyph glyph-name="add-user" unicode="&#57351;" d="M235 508c-49-9-87-41-104-87-7-18-10-46-7-66 4-27 16-52 34-71 4-5 10-10 12-12l6-5-9-3c-13-4-38-17-50-25-43-28-77-69-97-115-9-23-16-49-16-61 0-27 19-51 45-58 5-1 21-2 135-2l129 0 4 3c14 7 14 27 0 35l-4 2-124 0c-86 0-125 0-129 1-9 2-15 10-16 19 0 2 2 9 3 15 7 27 21 54 37 75 35 47 85 76 143 85 13 2 45 2 57 1 21-3 41-9 59-17 15-6 23-6 30 1 4 5 5 8 5 15 0 4 0 6-2 10-3 5-7 8-24 14-7 3-13 5-13 5 0 1 3 3 7 6 22 19 38 49 44 79 2 12 2 33 0 45-10 57-55 101-110 110-12 2-35 2-45 1z m41-41c28-5 55-27 67-53 6-13 8-24 8-39 0-12-1-15-3-23-8-33-33-59-66-68-9-3-31-4-41-2-36 6-65 33-75 69-4 12-4 35 0 47 7 26 23 47 47 60 19 10 40 13 63 9z m131-277c-3-2-9-8-10-12-1-1-1-15-1-31l0-30-31 0-31-1-4-3c-11-9-11-23 0-32l4-3 31 0 31-1 0-31 1-31 3-3c5-7 7-8 16-8 8 0 12 2 16 8 4 5 5 12 5 39l0 26 29 0c18 0 30 1 31 2 4 1 10 6 11 10 1 2 2 5 2 8 0 3-1 7-2 8-1 4-7 9-11 11-1 1-13 1-31 1l-29 0 0 26c0 14-1 28-1 31-2 11-9 16-19 17-4 0-8 0-10-1z"/>
<glyph glyph-name="aghsat" unicode="&#57352;" d="M200 508c-52-7-97-30-134-68-12-12-19-21-28-34-18-29-30-60-35-95-2-15-2-44 0-59 8-58 38-112 84-149 28-22 63-38 97-45 22-5 39-6 45-3 11 5 16 19 9 29-4 7-9 9-22 10-46 4-86 22-118 54-39 39-59 91-55 147 5 75 56 141 128 165 32 11 71 12 102 4 36-8 68-27 93-53 22-23 36-48 46-80 2-7 4-15 5-16 1-2 4-4 6-6 14-7 30 2 30 17 0 14-13 50-27 74-13 20-33 44-51 59-33 26-74 43-116 49-13 2-46 2-59 0z m21-80c-2-1-5-4-7-6l-3-4 0-63-1-64-33-33c-35-35-37-38-37-47 0-10 10-20 20-20 8 0 9 1 49 41 30 30 39 40 40 42 1 3 1 28 1 74l0 70-4 4c-4 6-9 8-16 8-4 0-6 0-9-2z m148-152c-3 0-10-2-17-3-37-6-63-20-73-40l-3-6 0-175 3-6c5-9 16-20 27-26 24-12 51-17 87-17 36 0 63 5 87 17 11 6 22 17 27 26l3 6 0 175-3 6c-10 20-35 34-73 40-11 2-17 3-37 3-13 0-26 0-28 0z m59-43c11-2 28-7 33-10 2-2 5-4 7-5l2-2 0-77c0-73 0-76-2-78-5-5-20-11-37-15-36-7-85-2-107 11-9 5-8 4-8 22 0 14 0 15 1 14 13-5 33-9 50-11 6-1 19-1 30-1 19 0 21 1 24 3 12 6 14 23 4 32-4 5-7 6-30 5-22 0-35 2-51 6-10 3-22 8-26 12-2 2-2 2-2 17l0 14 8-3c21-7 41-10 69-10 21 0 25 1 31 5 9 6 10 23 1 31-4 4-7 5-30 5-33 0-58 5-74 15-4 3-4 3-3 5 6 7 27 14 52 17 1 0 13 0 26 0 17 0 26 0 32-2z"/>
<glyph glyph-name="alarm" unicode="&#57353;" d="M256 512c-60 0-117-23-159-66l21-21c37 37 86 57 138 57 52 0 101-20 138-57l21 21c-42 43-99 66-159 66z m0-121c-28 0-55-11-74-30l21-21c13 13 33 21 53 21 20 0 40-8 53-21l21 21c-19 19-46 30-74 30z m0 61c-44 0-85-17-117-48l22-22c25 26 59 40 95 40 36 0 70-14 95-40l22 22c-32 31-73 48-117 48z m151-151l-302 0c-58 0-105-47-105-105 0-58 47-105 105-105l70 0-20-61-34 0 0-30c16 0 261 0 270 0l0 30-34 0-20 61 70 0c58 0 105 47 105 105 0 58-47 105-105 105z m-220-271l20 61 98 0 20-61z m220 91c-16 0-286 0-302 0-41 0-75 34-75 75 0 41 34 75 75 75l302 0c41 0 75-34 75-75 0-41-34-75-75-75z m-302 120c-25 0-45-20-45-45 0-25 20-45 45-45 25 0 45 20 45 45 0 25-20 45-45 45z m0-60c-8 0-15 7-15 15 0 8 7 15 15 15 8 0 15-7 15-15 0-8-7-15-15-15z m151 60c-25 0-45-20-45-45 0-25 20-45 45-45 25 0 45 20 45 45 0 25-20 45-45 45z m0-60c-8 0-15 7-15 15 0 8 7 15 15 15 8 0 15-7 15-15 0-8-7-15-15-15z m151 60c-25 0-45-20-45-45 0-25 20-45 45-45 25 0 45 20 45 45 0 25-20 45-45 45z m0-60c-8 0-15 7-15 15 0 8 7 15 15 15 8 0 15-7 15-15 0-8-7-15-15-15z"/>
<glyph glyph-name="arrow" unicode="&#57354;" d="M137 508c-4-2-8-7-10-11-2-4-2-12 0-16 1-3 38-40 108-110 76-77 106-107 107-110 1-3 1-9 0-12-1-3-30-33-108-110-86-87-106-107-107-111-2-5-1-14 2-18 3-6 8-8 14-9 4 0 8 0 10 1 2 1 32 30 112 110 100 101 109 109 111 115 5 10 7 18 7 29 0 11-3 22-9 31-5 7-216 219-220 221-4 1-13 1-17 0z"/>
<glyph glyph-name="at" unicode="&#57355;" d="M402 69c6-9 3-21-6-27-42-28-90-42-140-42 0 0 0 0 0 0-68 0-132 26-180 74-48 48-75 111-76 179-1 69 25 134 74 183 48 48 112 76 180 76 1 0 1 0 2 0 53 0 105-17 149-48 43-31 75-74 93-123 4-11-2-22-12-26-11-4-22 2-26 12-31 87-113 145-204 145-1 0-1 0-1 0-58 0-112-23-153-65-41-41-63-95-62-153 1-118 98-214 216-214l0 0c42 0 83 12 118 35 9 6 22 4 28-6z m110 166c0-50-41-91-91-91-32 0-60 17-77 42-20-26-52-43-88-43-62 0-113 51-113 113 0 62 51 113 113 113 28 0 54-10 74-28l0 4c0 11 9 20 20 20 11 0 20-9 20-20l0-110c0-28 23-51 51-51 28 0 51 23 51 51 0 11 9 20 20 20 11 0 20-9 20-20z m-183 21c0 40-33 73-73 73-40 0-73-33-73-73 0-40 33-73 73-73 40 0 73 33 73 73z"/>
<glyph glyph-name="baazaar" unicode="&#57356;" d="M266 0l-20 0c-33 0-60 27-60 60l0 10c0 3-2 5-4 6l-1 0c-2 1-5 1-7-1l-7-7c-11-11-26-18-43-18-16 0-31 7-42 18l-14 14c-11 11-18 26-18 42 0 17 7 32 18 43l7 7c2 2 2 5 1 7l0 1c-1 2-3 4-6 4l-10 0c-33 0-60 27-60 60l0 20c0 33 27 60 60 60l10 0c3 0 5 2 6 4l0 1c1 2 1 5-1 7l-7 7c-11 11-18 26-18 43 0 16 7 31 18 42l14 14c11 11 26 18 42 18 17 0 32-7 43-18l7-7c2-2 5-2 7-1l1 0c2 1 4 3 4 6l0 10c0 33 27 60 60 60l20 0c33 0 60-27 60-60l0-10c0-3 2-5 4-6l1 0c2-1 5-1 7 1l7 7c11 11 26 18 43 18 16 0 31-7 42-18l14-14c11-11 18-26 18-42 0-17-7-32-18-43l-7-7c-2-2-2-5-1-7l0-1c1-2 3-4 6-4l10 0c33 0 60-27 60-60l0-20c0-27-19-51-45-58-11-3-22 4-24 14-3 11 3 22 14 25 9 2 15 10 15 19l0 20c0 11-9 20-20 20l-10 0c-19 0-36 11-43 29l0 0c-8 18-4 38 10 51l7 7c4 4 6 9 6 15 0 5-2 10-6 14l-14 14c-4 4-9 6-14 6-6 0-11-2-15-6l-7-7c-13-14-33-18-51-10l0 0c-18 7-29 24-29 43l0 10c0 11-9 20-20 20l-20 0c-11 0-20-9-20-20l0-10c0-19-11-36-29-43l0 0c-18-8-38-4-51 10l-7 7c-4 4-9 6-15 6-5 0-10-2-14-6l-14-14c-4-4-6-9-6-14 0-6 2-11 6-15l7-7c14-13 18-33 10-51l0 0c-7-18-24-29-43-29l-10 0c-11 0-20-9-20-20l0-20c0-11 9-20 20-20l10 0c19 0 36-11 43-29l0 0c8-18 4-38-10-51l-7-7c-4-4-6-9-6-15 0-5 2-10 6-14l14-14c4-4 9-6 14-6 6 0 11 2 15 6l7 7c13 14 33 18 51 10l0 0c18-7 29-24 29-43l0-10c0-11 9-20 20-20l20 0c9 0 16 6 19 14 3 11 15 16 25 13 11-3 17-14 13-25-8-25-31-42-57-42z m229 18c11 11 17 26 17 42 0 15-6 30-17 41 0 0 0 0 0 0l-130 129c6 13 10 28 10 40 0 26-10 50-29 69-23 23-58 37-94 37 0 0 0 0 0 0-12 0-23-2-35-6-7-2-12-8-13-14-2-7 0-14 5-19l48-49-6-26-25-6-49 49c-5 5-12 7-19 5-7-1-12-6-14-13-5-12-7-24-7-36 0-29 9-59 26-81 20-27 48-42 79-42 1 0 1 0 1 0 11 0 26 3 40 9l129-129c11-11 26-17 41-17 16 0 31 6 42 17z m-220 170c-8-6-24-10-32-10-24 0-39 14-48 25-9 12-15 28-17 44l27-27c5-5 12-7 19-6l48 11c8 2 14 8 15 15l12 49c1 7-1 14-6 19l-26 27c20-3 38-12 51-24 11-12 17-25 17-41 0-8-5-23-11-32-6-8-5-19 2-26l141-139c3-4 5-9 5-13 0-5-2-10-5-14-4-3-9-5-14-5-4 0-9 2-13 5l-139 140c-4 4-9 6-15 6-4 0-8-1-11-4z"/>
<glyph glyph-name="best-calendar" unicode="&#57357;" d="M472 180l0 212c0 22-18 40-40 40l-26 0 0-20c0-11-9-20-20-20-11 0-20 9-20 20l0 20-91 0 0-20c0-11-9-20-20-20-11 0-20 9-20 20l0 20-90 0 0-20c0-11-9-20-20-20-11 0-20 9-20 20l0 20-25 0c-22 0-40-18-40-40l0-312c0-22 18-40 40-40l352 0c22 0 40 18 40 40 0 11 9 20 20 20 11 0 20-9 20-20 0-44-36-80-80-80l-352 0c-44 0-80 36-80 80l0 312c0 44 36 80 80 80l25 0 0 20c0 11 9 20 20 20 11 0 20-9 20-20l0-20 90 0 0 20c0 11 9 20 20 20 11 0 20-9 20-20l0-20 91 0 0 20c0 11 9 20 20 20 11 0 20-9 20-20l0-20 26 0c44 0 80-36 80-80l0-212c0-11-9-20-20-20-11 0-20 9-20 20z m-327 122c0 11-9 20-20 20-11 0-20-9-20-20 0-11 9-20 20-20 11 0 20 9 20 20z m174 0c0 11-9 20-20 20-11 0-20-9-20-20 0-11 9-20 20-20 11 0 20 9 20 20z m67-20c11 0 20 9 20 20 0 11-9 20-20 20-11 0-20-9-20-20 0-11 9-20 20-20z m-241-67c0 11-9 20-20 20-11 0-20-9-20-20 0-11 9-20 20-20 11 0 20 9 20 20z m-20-67c-11 0-20-9-20-20 0-11 9-20 20-20 11 0 20 9 20 20 0 11-9 20-20 20z m107 154c0 11-9 20-20 20-11 0-20-9-20-20 0-11 9-20 20-20 11 0 20 9 20 20z m0-87c0 11-9 20-20 20-11 0-20-9-20-20 0-11 9-20 20-20 11 0 20 9 20 20z m-20-67c-11 0-20-9-20-20 0-11 9-20 20-20 11 0 20 9 20 20 0 11-9 20-20 20z m186 81l-66-92c-2-2-4-2-5-2-2 0-4 0-6 2l-43 41c-5 5-14 5-19-1-5-5-5-13 1-19l42-41c7-6 15-9 24-9 1 0 2 0 2 0 10 1 19 5 25 13 0 0 0 0 0 0l67 93c4 6 2 14-4 19-6 4-14 2-18-4z"/>
<glyph glyph-name="book-dl" unicode="&#57358;" d="M58 510c-3 0-8-3-12-4-9-5-21-17-26-26-6-14-6 3-6-224 0-227 0-210 6-224 5-9 17-21 26-26 14-6 0-6 202-6l183 0 5 2c12 8 12 28 0 35l-3 2-182 1c-175 0-182 1-185 2-7 4-11 10-11 18 0 8 4 14 11 18 3 1 10 1 185 2l182 0 3 3c2 1 5 4 7 6 2 5 2 5 2 30 0 25 0 25-2 30-4 6-10 9-18 9-8 0-14-3-17-9-3-4-3-6-3-17l0-12-271 0 0 298-2 5c-4 6-10 9-18 9-8 0-14-3-17-9l-3-5 0-298-15 0c-9 0-16-1-20-1l-5-2 0 170c1 163 1 170 2 173 3 5 5 7 10 9l4 2 167 1 168 0 0-12c0-11 0-13 3-17 3-6 9-9 17-9 8 0 14 3 18 9 2 5 2 5 2 30 0 25 0 25-2 30-2 2-5 5-7 6l-5 3-184 0c-156 0-184 0-189-2z m356-119c-2-1-5-4-6-6l-3-5 0-116-10 10c-6 5-12 10-14 11-2 1-5 2-9 2-12 0-20-8-20-20 0-6 1-7 3-11 2-3 14-16 28-30 29-28 30-29 42-29 12 0 13 1 42 29 14 14 27 27 28 30 3 4 3 5 3 11 0 12-8 20-20 20-4 0-7-1-9-2-2-1-8-6-14-11l-10-10 0 116-2 5c-4 6-10 9-18 9-5 0-7-1-11-3z"/>
<glyph glyph-name="calendar" unicode="&#57359;" d="M319 215c0-11-9-20-20-20-11 0-20 9-20 20 0 11 9 20 20 20 11 0 20-9 20-20z m91 7l-110-109c-3-2-4-5-5-8l-24-79c-2-7 0-15 5-20 4-4 9-6 14-6 2 0 4 0 5 1l81 22c3 1 6 3 9 5l109 110c24 23 24 61 0 84-23 24-61 24-84 0z m-50-162l-40-11 12 39 74 74 28-28z m106 106l-4-4-28 28 4 4c8 8 20 8 28 0 8-8 8-20 0-28z m-234-38c0-11-9-20-20-20-11 0-20 9-20 20 0 11 9 20 20 20 11 0 20-9 20-20z m0 87c0-11-9-20-20-20-11 0-20 9-20 20 0 11 9 20 20 20 11 0 20-9 20-20z m0 87c0-11-9-20-20-20-11 0-20 9-20 20 0 11 9 20 20 20 11 0 20-9 20-20z m-87-87c0-11-9-20-20-20-11 0-20 9-20 20 0 11 9 20 20 20 11 0 20-9 20-20z m0-87c0-11-9-20-20-20-11 0-20 9-20 20 0 11 9 20 20 20 11 0 20-9 20-20z m0 174c0-11-9-20-20-20-11 0-20 9-20 20 0 11 9 20 20 20 11 0 20-9 20-20z m261 0c0-11-9-20-20-20-11 0-20 9-20 20 0 11 9 20 20 20 11 0 20-9 20-20z m26 170l-26 0 0 20c0 11-9 20-20 20-11 0-20-9-20-20l0-20-91 0 0 20c0 11-9 20-20 20-11 0-20-9-20-20l0-20-90 0 0 20c0 11-9 20-20 20-11 0-20-9-20-20l0-20-25 0c-44 0-80-36-80-80l0-312c0-44 36-80 80-80l122 0c11 0 20 9 20 20 0 11-9 20-20 20l-122 0c-22 0-40 18-40 40l0 312c0 22 18 40 40 40l25 0 0-20c0-11 9-20 20-20 11 0 20 9 20 20l0 20 90 0 0-20c0-11 9-20 20-20 11 0 20 9 20 20l0 20 91 0 0-20c0-11 9-20 20-20 11 0 20 9 20 20l0 20 26 0c22 0 40-18 40-40l0-90c0-11 9-20 20-20 11 0 20 9 20 20l0 90c0 44-36 80-80 80z m-113-170c0-11-9-20-20-20-11 0-20 9-20 20 0 11 9 20 20 20 11 0 20-9 20-20z"/>
<glyph glyph-name="calendar-1" unicode="&#57360;" d="M512 392l0-142c0-11-9-20-20-20-11 0-20 9-20 20l0 142c0 22-18 40-40 40l-26 0 0-20c0-11-9-20-20-20-11 0-20 9-20 20l0 20-91 0 0-20c0-11-9-20-20-20-11 0-20 9-20 20l0 20-90 0 0-20c0-11-9-20-20-20-11 0-20 9-20 20l0 20-25 0c-22 0-40-18-40-40l0-312c0-22 18-40 40-40l168 0c11 0 20-9 20-20 0-11-9-20-20-20l-168 0c-44 0-80 36-80 80l0 312c0 44 36 80 80 80l25 0 0 20c0 11 9 20 20 20 11 0 20-9 20-20l0-20 90 0 0 20c0 11 9 20 20 20 11 0 20-9 20-20l0-20 91 0 0 20c0 11 9 20 20 20 11 0 20-9 20-20l0-20 26 0c44 0 80-36 80-80z m-367-90c0 11-9 20-20 20-11 0-20-9-20-20 0-11 9-20 20-20 11 0 20 9 20 20z m154-20c11 0 20 9 20 20 0 11-9 20-20 20-11 0-20-9-20-20 0-11 9-20 20-20z m87 0c11 0 20 9 20 20 0 11-9 20-20 20-11 0-20-9-20-20 0-11 9-20 20-20z m-241-67c0 11-9 20-20 20-11 0-20-9-20-20 0-11 9-20 20-20 11 0 20 9 20 20z m-20-67c-11 0-20-9-20-20 0-11 9-20 20-20 11 0 20 9 20 20 0 11-9 20-20 20z m107 154c0 11-9 20-20 20-11 0-20-9-20-20 0-11 9-20 20-20 11 0 20 9 20 20z m0-87c0 11-9 20-20 20-11 0-20-9-20-20 0-11 9-20 20-20 11 0 20 9 20 20z m-20-67c-11 0-20-9-20-20 0-11 9-20 20-20 11 0 20 9 20 20 0 11-9 20-20 20z m67 67c0-11 9-20 20-20 11 0 20 9 20 20 0 11-9 20-20 20-11 0-20-9-20-20z m87 0c0-11 9-20 20-20 11 0 20 9 20 20 0 11-9 20-20 20-11 0-20-9-20-20z m138-29c-9 7-22 5-28-4l-99-138c-3-3-6-4-8-4-2 0-5 0-8 3l-64 62c-8 8-21 8-28 0-8-8-8-21 0-28l64-63c0 0 0 0 0 0 10-9 22-14 36-14 1 0 2 0 3 0 14 1 28 8 37 19 0 1 0 1 0 1l99 138c7 9 5 22-4 28z"/>
<glyph glyph-name="calendar-2" unicode="&#57361;" d="M117 510c-4-2-9-8-10-11-1-2-1-9-1-15l0-13-18 0c-20 0-27-1-39-6-23-10-42-33-47-58-1-4-1-56-1-171 0-181 0-171 6-186 10-24 33-43 58-48 4 0 34-1 89-1 92 0 87 0 94 6 4 5 5 8 5 14 0 6-1 10-5 14-7 7-2 6-88 6-47 0-81 1-85 1-17 3-31 17-33 34-1 9-1 312 0 320 2 18 16 32 34 34 3 1 11 1 18 1l12 0 0-12c0-14 0-16 5-21 4-5 8-6 14-6 7 0 11 1 15 6 5 5 5 7 5 21l0 12 90 0 0-12c0-14 1-17 6-22 4-4 8-5 14-5 6 0 10 1 14 6 5 5 6 7 6 21l0 12 90 0 0-12c0-14 1-17 6-22 5-4 8-5 14-5 6 0 11 1 15 6 4 5 5 7 5 21l0 12 12 0c7 0 15 0 19-1 17-2 31-16 34-34 0-3 1-32 1-64 0-39 0-60 1-62 1-3 7-9 10-10 4-2 12-2 16-1 4 2 10 7 11 11 1 2 2 15 2 67 0 42-1 66-1 70-5 25-24 48-48 58-12 5-18 6-39 6l-18 0 0 13c0 13-1 16-5 21-4 4-9 6-15 6-6 0-9-1-14-5-5-5-6-8-6-22l0-13-90 0 0 13c0 14-1 17-6 22-5 4-8 5-14 5-6 0-10-1-14-5-5-5-6-8-6-22l0-13-90 0 0 13c0 6 0 13-1 15-1 4-6 9-10 11-4 1-13 1-17 0z m0-190c-4-1-9-7-10-10-2-4-2-12 0-16 2-4 7-9 11-11 4-1 12-1 16 0 4 2 9 8 10 11 1 2 1 5 1 8 0 3 0 6-1 8-1 3-6 9-10 10-4 2-13 2-17 0z m87 0c-4-1-9-7-11-10-1-4-1-12 0-16 2-4 8-9 11-11 4-1 12-1 16 0 4 2 9 8 11 11 0 2 1 5 1 8 0 3-1 6-1 8-2 3-7 9-11 10-4 2-13 2-16 0z m86 0c-4-1-9-7-10-10-2-4-2-12 0-16 2-4 7-9 11-11 4-1 12-1 16 0 4 2 9 8 10 11 1 2 2 5 2 8 0 3-1 6-2 8-1 3-6 9-10 10-4 2-13 2-17 0z m87 0c-4-1-9-7-11-10-1-4-1-12 1-16 1-4 7-9 11-11 4-1 12-1 15 0 4 2 10 8 11 11 1 2 1 5 1 8 0 3 0 6-1 8-1 3-7 9-11 10-4 2-12 2-16 0z m-9-79c-48-9-88-49-97-98-2-11-2-32 0-42 9-50 49-90 98-98 11-2 32-2 42 0 50 8 90 48 98 98 2 10 2 31 0 42-6 37-31 70-65 87-11 5-22 9-33 11-10 2-33 2-43 0z m42-42c28-7 50-29 58-58 3-11 3-28 0-39-6-23-22-43-44-53-21-9-47-9-67 0-22 10-38 30-44 53-3 11-3 28 0 39 11 43 53 69 97 58z m-28-18c-4-2-9-7-11-11-1-4-1-52 1-56 1-4 7-10 11-11 3-1 40-1 44 0 3 1 9 7 11 11 0 1 1 5 1 8 0 6-2 10-6 14-5 5-8 6-16 6l-7 0 0 13c0 7 0 14-1 15-1 4-7 9-11 11-4 2-12 2-16 0z m-265 53c-4-2-9-7-10-11-2-4-2-12 0-16 2-4 7-9 11-10 4-2 12-2 16 0 4 2 9 7 10 11 1 1 1 5 1 7 0 3 0 6-1 8-1 4-6 9-10 11-4 2-13 2-17 0z m87 0c-4-2-9-7-11-11-1-4-1-12 0-16 2-4 8-9 11-10 4-2 12-2 16 0 4 2 9 7 11 11 0 1 1 5 1 7 0 3-1 6-1 8-2 4-7 9-11 11-4 2-13 2-16 0z m-87-87c-4-1-9-7-10-11-2-4-2-12 0-15 2-4 7-10 11-11 4-2 12-1 16 0 4 2 9 7 10 11 1 2 1 5 1 8 0 2 0 6-1 7-1 4-6 10-10 11-4 2-13 2-17 0z m87 0c-4-1-9-7-11-11-1-4-1-12 0-15 2-4 8-10 11-11 4-2 12-1 16 0 4 2 9 7 11 11 0 2 1 5 1 8 0 2-1 6-1 7-2 4-7 10-11 11-4 2-13 2-16 0z"/>
<glyph glyph-name="camera" unicode="&#57362;" d="M509 462c-3 6-10 10-17 10l-85 0c-11 0-20-9-20-20 0-11 9-20 20-20l51 0-22-38-91 0c-8 0-14-4-18-11l-49-99-138 0c-11 0-20 9-20 20l0 108c0 11 9 20 20 20l155 0c11 0 20 9 20 20 0 11-9 20-20 20l-155 0c-33 0-60-27-60-60l0-108c0-33 27-60 60-60l68 0-33-80c-15-1-27-10-34-22l-101 0 0 350c0 11-9 20-20 20-11 0-20-9-20-20l0-472c0-11 9-20 20-20 11 0 20 9 20 20l0 82 104 0c7-11 19-18 33-18 22 0 40 18 40 40 0 8-2 15-6 22l40 98 39 0c8 0 15 4 18 11l9 19 135 0c11 0 20 9 20 20l0 80c0 1 0 1 0 2l37 66c4 6 4 14 0 20z m-172-148l20 40 75 0 0-40z m-77 78c11 0 20-9 20-20 0-11-9-20-20-20-11 0-20 9-20 20 0 11 9 20 20 20z m-80 0c11 0 20-9 20-20 0-11-9-20-20-20-11 0-20 9-20 20 0 11 9 20 20 20z"/>
<glyph glyph-name="category" unicode="&#57363;" d="M114 510c-3 0-8-3-12-4-9-5-21-17-26-26-5-12-6-16-6-40l0-22-5-6c-3-3-7-9-9-12-5-11-6-16-6-40l0-22-5-6c-3-3-7-8-9-12-6-13-6-13-6-74l0-55-8 0c-7 0-9 0-13-3-2-1-5-4-6-6l-3-5 0-54c0-62 0-63 9-80 10-20 29-35 51-41 8-2 12-2 196-2 184 0 188 0 196 2 22 5 42 21 52 41 8 17 8 18 8 80l0 54-2 5c-2 2-5 5-7 6l-5 3-157 0-4-2c-3-2-7-7-18-21l-13-19-103 0-13 19c-12 16-15 19-18 21-4 2-6 2-53 2l-49 0 0 53c1 49 1 53 2 56 3 5 5 7 10 9l4 2 341 0 4-2c9-5 10-9 11-29 0-14 0-16 3-20 3-6 9-9 17-9 8 0 14 3 18 9 2 5 2 5 2 23 0 21-1 26-6 37-2 4-6 9-9 12l-5 6 0 22c0 24-1 29-6 40-2 3-6 9-9 12l-5 6 0 22c0 24-1 28-6 40-5 9-17 21-26 26-14 6-4 6-154 6-115 0-137 0-142-2z m277-41c8-4 10-9 11-25l0-12-292 0 0 12c1 18 5 25 17 27 2 0 61 1 132 1l128-1z m20-80c8-4 10-9 11-25l0-12-332 0 0 12c1 18 5 25 17 27 2 0 70 1 152 1l148-1z m-247-257c11-14 15-19 18-21l4-2 137 0 4 2c3 2 7 7 18 21l13 19 114 0 0-35c0-19 0-37-1-41-2-18-16-31-34-34-9-1-353-1-362 0-18 3-31 16-34 34 0 4-1 23-1 42l0 34 111 0z"/>
<glyph glyph-name="cctv" unicode="&#57364;" d="M351 512l-190 0c-51 0-93-42-93-93l0-143c0-52 42-93 93-93l26 0 0-35-46 0c-10 0-18-8-18-18l0-1c0-71 58-129 129-129l8 0c71 0 129 58 129 129l0 1c0 10-8 18-18 18l-46 0 0 35 26 0c51 0 93 41 93 93l0 143c0 51-42 93-93 93z m-91-475l-8 0c-45 0-83 32-91 74l190 0c-8-42-46-74-91-74z m29 111l-66 0 0 35 66 0z m118 128c0-31-25-57-56-57l-190 0c-31 0-56 26-56 57l0 143c0 31 25 56 56 56l190 0c31 0 56-25 56-56z m-151 178c-59 0-106-48-106-107 0-58 47-106 106-106 59 0 106 48 106 106 0 59-47 107-106 107z m0-176c-38 0-70 31-70 69 0 39 32 70 70 70 38 0 70-31 70-70 0-38-32-69-70-69z m0 119c-27 0-50-22-50-50 0-27 23-49 50-49 27 0 50 22 50 49 0 28-23 50-50 50z m0-63c-7 0-13 6-13 13 0 7 6 13 13 13 7 0 13-6 13-13 0-7-6-13-13-13z"/>
<glyph glyph-name="certificate" unicode="&#57365;" d="M513 432l0-159c0-11-9-20-20-20-11 0-20 9-20 20l0 159c0 22-18 40-40 40l-352 0c-22 0-40-18-40-40l0-259c0-22 18-40 40-40l101 0c11 0 20-9 20-20 0-11-9-20-20-20l-101 0c-44 0-80 36-80 80l0 259c0 44 36 80 80 80l352 0c44 0 80-36 80-80z m-20-239c-11 0-20-9-20-20 0-22-18-40-40-40-11 0-20-9-20-20 0-11 9-20 20-20 44 0 80 36 80 80 0 11-9 20-20 20z m-391 199l115 0c11 0 20 9 20 20 0 11-9 20-20 20l-115 0c-11 0-20-9-20-20 0-11 9-20 20-20z m311 0c11 0 20 9 20 20 0 11-9 20-20 20l-115 0c-11 0-20-9-20-20 0-11 9-20 20-20z m20-60c0 11-9 20-20 20l-311 0c-11 0-20-9-20-20 0-11 9-20 20-20l311 0c11 0 20 9 20 20z m-331-60c-11 0-20-9-20-20 0-11 9-20 20-20l74 0c11 0 20 9 20 20 0 11-9 20-20 20z m297-92c0-28-13-54-33-71l0-89c0-7-3-13-9-17-3-2-7-3-11-3-3 0-5 1-8 2l-32 13-32-13c-6-3-14-2-19 1-6 4-9 10-9 17l0 91c-19 17-31 42-31 69 0 51 41 92 92 92 51 0 92-41 92-92z m-144 0c0-29 23-52 52-52 29 0 52 23 52 52 0 29-23 52-52 52-29 0-52-23-52-52z m71-90c-6-1-13-2-19-2-7 0-14 1-21 2l0-40 12 5c5 3 11 3 16 0l12-5 0 40z"/>
<glyph glyph-name="check" unicode="&#57366;" d="M439 159c11 0 20 9 20 20l0 203c0 44-36 80-80 80l-63 0 0 30c0 11-9 20-20 20l-80 0c-11 0-20-9-20-20l0-30-63 0c-44 0-80-36-80-80l0-302c0-44 36-80 80-80l246 0c44 0 80 36 80 80 0 11-9 20-20 20-11 0-20-9-20-20 0-22-18-40-40-40l-246 0c-22 0-40 18-40 40l0 302c0 22 18 40 40 40l63 0 0-10c0-33 27-60 60-60 33 0 60 27 60 60l0 10 63 0c22 0 40-18 40-40l0-203c0-11 9-20 20-20z m-163 253c0-11-9-20-20-20-11 0-20 9-20 20l0 60 40 0z m87-128c9-6 12-18 5-27l-89-129c0 0 0 0-1-1-8-11-22-18-36-19-1 0-2 0-4 0-13 0-25 5-35 14 0 0 0 0 0 0l-53 53c-8 7-8 20 0 28 7 8 20 8 28 0l53-52c3-3 6-3 8-3 2 0 5 1 8 4l88 127c7 9 19 12 28 5z"/>
<glyph glyph-name="check-2" unicode="&#57367;" d="M220 40l-113 0c-22 0-40 18-40 40l0 302c0 22 18 40 40 40l63 0 0-10c0-33 27-60 60-60 33 0 60 27 60 60l0 10 63 0c22 0 40-18 40-40l0-152c0-11 9-20 20-20 11 0 20 9 20 20l0 152c0 44-36 80-80 80l-63 0 0 30c0 11-9 20-20 20l-80 0c-11 0-20-9-20-20l0-30-63 0c-44 0-80-36-80-80l0-302c0-44 36-80 80-80l113 0c11 0 20 9 20 20 0 11-9 20-20 20z m-10 432l40 0 0-60c0-11-9-20-20-20-11 0-20 9-20 20z m143-202c0-11-9-20-20-20l-137 0c-11 0-20 9-20 20 0 11 9 20 20 20l137 0c11 0 20-9 20-20z m0-80c0-11-9-20-20-20l-136 0c-11 0-20 9-20 20 0 11 9 20 20 20l136 0c11 0 20-9 20-20z m-206 80c0-11-9-20-20-20-11 0-20 9-20 20 0 11 9 20 20 20 11 0 20-9 20-20z m0-80c0-11-9-20-20-20-11 0-20 9-20 20 0 11 9 20 20 20 11 0 20-9 20-20z m335-32l-99-138c0 0 0 0-1-1-8-11-22-18-36-19-1 0-2 0-4 0-13 0-25 5-35 14 0 0 0 0 0 0l-64 63c-8 7-8 20 0 28 7 8 20 8 28 0l64-62c3-3 6-3 8-3 2 0 5 1 8 4l99 138c6 9 19 11 28 4 9-6 11-19 4-28z"/>
<glyph glyph-name="cm-back" unicode="&#57368;" d="M298 370c-12 11-18 26-18 42 0 16 6 31 18 42l52 52c8 8 20 8 28 0 8-8 8-20 0-28l-45-45 69 0c61 0 110-49 110-110l0-55c0-11-9-20-20-20 0 0 0 0 0 0-11 0-20 9-20 20l0 55c0 39-31 70-70 70l-71 0 47-47c8-8 8-20 0-28-4-4-9-6-14-6-5 0-10 2-14 6z m191-219c-28 27-52 43-74 49-31 9-59 1-85-24 0 0 0 0 0 0l-27-27c-17 10-49 31-85 66l-3 3c-35 36-56 68-66 85l27 27c0 0 0 0 0 0 25 26 33 54 24 85-6 22-22 46-49 74-13 14-32 22-52 23-19 1-38-6-53-19l-1-1c0 0 0 0 0-1-30-29-45-70-45-119 0-82 46-176 121-251 14-14 30-28 48-42 9-7 21-5 28 4 7 9 5 21-4 28-16 12-31 25-44 38-68 68-109 152-109 224 0 37 11 68 32 90l1 0c14 13 36 12 50-2 51-54 48-79 25-103l-37-37c-6-6-8-15-4-22 1-2 23-53 80-109l3-3c56-57 107-79 109-80 7-4 16-2 22 4l37 37c24 23 49 26 103-25 14-14 15-36 2-50l0-1c-22-21-53-32-89-32-1 0-1 0-1 0-30 0-64 8-99 23-10 5-22 0-26-10-5-10 0-22 10-26 41-18 79-27 114-27 1 0 1 0 2 0 47 0 88 15 117 45 1 0 1 0 1 0l1 1c13 15 20 34 19 53-1 20-9 39-23 52z"/>
<glyph glyph-name="coding" unicode="&#57369;" d="M256 115c-3-3-3-6-3-7 0-2 0-5 3-7l67-67c7-8 8-20 0-28-4-4-9-6-14-6-6 0-11 2-15 6l-67 67c-9 9-14 22-14 35 0 13 5 26 14 35l67 67c8 8 21 8 29 0 8-8 7-21 0-28z m214 29l-67 67c-8 7-21 7-29 0-7-8-7-21 0-29l67-66c3-3 3-6 3-7 0-2 0-5-3-7l-67-67c-7-8-7-21 0-28 4-4 9-6 14-6 6 0 11 2 15 6l67 66c9 10 14 22 14 36 0 13-5 25-14 35z m-77 288l0-156c0-11 9-20 20-20 11 0 20 9 20 20l0 156c0 44-36 80-80 80l-181 0c-21 0-41-8-55-23l-66-67c-15-14-23-34-23-55l0-286c0-44 36-80 80-80l94 0c11 0 20 9 20 20 0 11-9 20-20 20l-94 0c-22 0-40 18-40 40l0 262 59 0c38 0 70 32 70 70 0 11-9 20-20 20-11 0-20-9-20-20 0-16-14-30-30-30l-56 0c2 4 5 8 8 11l66 67c7 7 17 11 27 11l181 0c22 0 40-18 40-40z"/>
<glyph glyph-name="coding-2" unicode="&#57370;" d="M280 315c13 0 23-13 19-26l-45-159c-3-9-11-15-20-15-13 0-23 13-19 26l45 159c3 9 11 15 20 15z m-155-96l50 42c8 7 9 19 2 28-7 8-19 9-28 2l-49-41c0 0 0 0 0 0-11-9-17-22-17-36 0-14 6-27 17-36 0 0 0 0 0 0l49-41c4-3 8-5 13-5 6 0 11 2 15 7 7 9 6 21-2 28l-50 42c-2 2-2 4-2 5 0 1 0 3 2 5z m261-10l-49-42c-8-7-9-20-2-28 4-5 9-7 15-7 5 0 9 2 13 5l48 41c11 9 17 22 17 36 0 14-6 27-16 36l-49 41c-8 7-21 6-28-2-7-8-6-21 2-28l49-42c2-2 2-4 2-5 0-1 0-3-2-5z m126 223l0-232c0-11-9-20-20-20-11 0-20 9-20 20l0 171-432 0 0-271c0-22 18-40 40-40l352 0c22 0 40 18 40 40 0 11 9 20 20 20 11 0 20-9 20-20 0-44-36-80-80-80l-352 0c-44 0-80 36-80 80l0 332c0 33 27 60 60 60l392 0c33 0 60-27 60-60z m-161 0c0-11 9-20 20-20 11 0 20 9 20 20 0 11-9 20-20 20-11 0-20-9-20-20z m100 20c-11 0-20-9-20-20 0-11 9-20 20-20 11 0 20 9 20 20 0 11-9 20-20 20z m-411-41l275 0c-3 7-4 14-4 21 0 7 1 14 3 20l-254 0c-11 0-20-9-20-20z"/>
<glyph glyph-name="comment" unicode="&#57371;" d="M60 498c-22-6-41-21-51-42-10-18-9-7-9-156 0-150-1-138 9-157 4-8 6-11 14-19 15-15 30-22 51-24 13-1 19-3 23-10 4-5 5-12 5-34 0-17 0-20 2-25 3-7 10-14 18-17 8-3 20-3 27 1 3 1 17 14 40 37 32 32 35 35 43 39 4 2 11 5 16 6 7 2 9 2 104 3l97 0 8 3c13 5 22 10 32 21 8 8 10 11 14 19 6 12 9 23 9 34 0 8 0 10-2 14-8 12-28 12-35 0-2-2-3-7-4-13 0-5-2-12-3-15-6-11-18-20-31-22-5-1-43-1-96-1-96 0-95 0-112-6-10-3-21-9-30-15-3-2-18-16-32-29l-25-25 0 11c0 20-5 33-18 46-12 12-23 17-45 19-12 1-18 4-26 10-6 6-10 15-12 24-1 9-1 240 0 249 3 19 16 32 34 35 9 1 354 1 362 0 18-3 32-16 34-34 1-4 1-39 1-79l0-72 3-5c3-6 9-9 17-9 8 0 14 3 18 9l2 5 0 79c0 90 0 86-9 104-4 8-6 11-14 19-9 9-12 11-20 15-5 3-13 6-17 7-8 2-12 2-196 2-183 0-189 0-196-2z m49-101c-6-3-9-9-9-17 0-8 3-14 9-18l5-2 284 0 5 2c6 4 9 10 9 18 0 8-3 14-9 17l-5 3-284 0z m0-80c-6-3-9-9-9-17 0-8 3-14 9-18l5-2 284 0 5 2c6 4 9 10 9 18 0 8-3 14-9 17l-5 3-284 0z m0-80c-6-3-9-9-9-17 0-8 3-14 9-18l5-2 204 0 5 2c6 4 9 10 9 18 0 8-3 14-9 17l-5 3-204 0z"/>
<glyph glyph-name="contact" unicode="&#57372;" d="M501 335c0 3-2 5-3 7-1 2-3 3-4 4-4 5-8 9-13 13l-181 140c-1 0-1 0-2 1-26 16-58 16-84 0-1-1-1-1-2-1l-181-140c-19-15-31-39-31-64l0-215c0-44 36-80 80-80l246 0c11 0 20 9 20 20 0 11-9 20-20 20l-246 0c-22 0-40 18-40 40l0 215c0 13 6 25 16 32l180 139c12 8 28 8 40 0l175-135-175-131c-12-8-28-8-40 0l-119 88c-9 7-21 5-28-4-7-9-5-21 4-28l119-89c1 0 1-1 2-1 13-8 27-12 42-12 15 0 29 4 42 12 1 0 1 1 2 1l172 130c0 0 0-1 0-2l0-41c0-11 9-20 20-20 11 0 20 9 20 20l0 41c0 15-4 28-11 40z m5-206l-59 59c-12 11-30 11-42 0l-59-59c-8-8-8-21 0-28 8-8 20-8 28 0l32 31 0-112c0-11 9-20 20-20 11 0 20 9 20 20l0 112 32-31c4-4 9-6 14-6 5 0 10 2 14 6 8 7 8 20 0 28z"/>
<glyph glyph-name="dashboard" unicode="&#57373;" d="M44 510c-3 0-8-3-12-4-9-5-21-17-26-26-7-14-6 3-6-229 0-230 0-213 6-226 3-6 13-16 20-19 12-6-5-6 230-6 235 0 218 0 231 6 6 3 16 13 19 19 6 13 6-4 6 231 0 235 0 218-6 230-3 7-13 17-19 20-13 6 4 6-227 6-181 0-211 0-216-2z m317-73l0-45-331 0 0 24c0 14 0 27 1 31 3 17 16 31 33 34 3 0 71 1 151 1l146 0z m86 44c18-3 31-16 34-34 1-4 1-17 1-31l0-24-91 0 0 90 24 0c14 0 28-1 32-1z m35-264c0-81 0-148-1-152-2-18-16-31-34-34-9-1-373-1-382 0-18 3-32 17-34 35 0 3-1 72-1 151l0 145 452 0z m-414 233c-5-3-7-7-7-13 0-6 2-10 7-13 2-2 5-2 23-2 23 0 24 0 28 7 3 3 3 12 0 16-4 7-5 7-28 7-18 0-21 0-23-2z m90 0c-5-3-7-7-7-13 0-6 2-10 7-13 2-2 5-2 23-2 18 0 21 0 23 2 5 3 7 7 7 13 0 6-2 10-7 13-2 2-5 2-23 2-18 0-21 0-23-2z m90 0c-5-3-7-7-7-13 0-6 2-10 7-13 2-2 5-2 23-2 23 0 24 0 28 7 3 3 3 12 0 16-4 7-5 7-28 7-18 0-21 0-23-2z m-180-122c-2-1-4-3-5-5-2-2-2-6-2-68 0-63 0-66 2-68 1-2 3-4 5-5 2-2 6-2 83-2 77 0 81 0 83 2 5 3 7 7 7 13 0 6-2 10-7 13-2 2-6 2-73 2l-70 0 0 4c0 3 1 5 23 26l22 22 10-9c12-12 13-13 20-13 5 0 6 0 10 3 4 3 61 60 63 64 1 1 2 4 2 8 0 6-2 10-7 13-3 2-12 3-16 0-1-1-14-12-27-26l-25-25-10 10c-5 5-11 10-12 11-3 2-13 3-16 0-1-1-10-9-20-18l-17-18 0 29c0 27 0 30-2 32-3 5-7 7-13 7-4 0-6-1-8-2z m240 0c-2-1-4-3-5-5-2-2-2-5-2-43l0-40-10 0c-11 0-14-1-18-7-3-4-3-13 0-16 4-6 7-7 18-7l10 0 0-10c0-12 1-14 7-18 4-3 13-3 16 0 6 4 7 6 7 18l0 10 10 0c12 0 14 1 18 7 3 3 3 12 0 16-4 6-6 7-18 7l-10 0 0 40c0 38 0 41-2 43-3 5-7 7-13 7-4 0-6-1-8-2z m90 0c-6-4-7-7-7-18l0-10-10 0c-9 0-11 0-13-2-5-3-7-7-7-13 0-6 2-10 7-13 2-2 4-2 13-2l10 0 0-40c0-38 0-41 2-43 3-5 7-7 13-7 6 0 10 2 13 7 2 2 2 5 2 43l0 40 10 0c12 0 14 1 18 7 3 3 3 12 0 16-4 6-6 7-18 7l-10 0 0 10c0 9 0 11-2 13-3 5-7 7-13 7-4 0-6-1-8-2z m-330-180c-2-1-4-3-5-5-2-2-2-5-2-38 0-33 0-36 2-38 1-2 3-4 5-5 2-2 6-2 83-2 77 0 81 0 83 2 2 1 4 3 5 5 2 2 2 5 2 38 0 33 0 36-2 38-1 2-3 4-5 5-2 2-6 2-83 2-77 0-81 0-83-2z m143-43l0-15-120 0 0 30 120 0z m67 43c-5-3-7-7-7-13 0-10 6-15 15-15 10 0 15 5 15 15 0 9-5 15-15 15-4 0-6-1-8-2z m60 0c-5-3-7-7-7-13 0-6 2-10 7-13 2-2 5-2 53-2 48 0 51 0 53 2 5 3 7 7 7 13 0 6-2 10-7 13-2 2-5 2-53 2-48 0-51 0-53-2z m-60-60c-5-3-7-7-7-13 0-6 2-10 7-13 2-2 5-2 53-2 48 0 51 0 53 2 5 3 7 7 7 13 0 6-2 10-7 13-2 2-5 2-53 2-48 0-51 0-53-2z m150 0c-5-3-7-7-7-13 0-10 6-15 15-15 10 0 15 5 15 15 0 9-5 15-15 15-4 0-6-1-8-2z"/>
<glyph glyph-name="delete" unicode="&#57374;" d="M219 123c8-8 8-20 0-28l-36-36c0 0 0 0 0 0-12-12-27-18-43-18-16 0-31 6-43 18l-36 36c-8 8-8 20 0 28 7 8 20 8 28 0l31-31 0 93c0 11 9 20 20 20 11 0 20-9 20-20l0-93 30 31c8 8 21 8 29 0z m94 261c5 0 11 2 14 6l29 30 0-93c0-11 9-20 20-20 11 0 20 9 20 20l0 92 29-29c7-8 20-8 28 0 8 7 8 20 0 28l-35 36c-11 12-26 18-42 18-16 0-32-6-43-18 0 0 0 0 0 0l-34-36c-8-8-8-21 0-28 4-4 9-6 14-6z m191-369c-8-10-19-15-31-15l-196 0c-12 0-23 5-31 15-8 9-11 22-8 34 6 31 23 59 48 79 9 8 20 15 30 20-12 13-19 31-19 51 0 43 35 78 78 78 43 0 78-35 78-78 0-20-7-38-19-51 9-5 18-11 27-17 9-7 10-20 4-28-4-5-10-8-16-8-5 0-9 1-13 4-17 14-39 21-61 21-47 0-88-33-98-79 0-1 0-1 0-1 0 0 0 0 0 0l196 0c0 0 0 0 0 1 0 1 0 2 0 4l0 0c0 10 7 19 17 20 11 1 20-6 22-16 3-12 0-25-8-34z m-167 184c0-21 17-38 38-38 21 0 38 17 38 38 0 21-17 38-38 38-21 0-38-17-38-38z m-100 36l-196 0c-12 0-23 5-31 15-8 9-11 22-8 34 6 31 23 59 48 79 9 8 20 15 30 20-12 13-19 31-19 51 0 43 35 78 78 78 43 0 78-35 78-78 0-20-7-38-19-51 10-5 21-12 30-20 24-19 41-47 48-77 0-1 0-1 0-2 3-12 0-25-8-34-8-10-19-15-31-15z m-136 199c0-21 17-38 38-38 21 0 38 17 38 38 0 21-17 38-38 38-21 0-38-17-38-38z m136-158c0 0 0 0 0 0-10 46-51 79-98 79-47 0-88-33-98-79 0-1 0-1 0-1 0 0 0 0 0 0l196 0c0 0 0 0 0 1z"/>
<glyph glyph-name="department" unicode="&#57375;" d="M136 195c0 25-20 45-45 45-25 0-45-20-45-45 0-25 20-45 45-45 25 0 45 20 45 45z m-45-15c-8 0-15 7-15 15 0 8 7 15 15 15 8 0 15-7 15-15 0-8-7-15-15-15z m218 68c0 29-24 53-52 53-29 0-53-24-53-53 0-28 24-52 53-52 28 0 52 24 52 52z m-52-22c-13 0-23 10-23 22 0 13 10 23 23 23 12 0 22-10 22-23 0-12-10-22-22-22z m210-31c0 25-20 45-45 45-25 0-45-20-45-45 0-25 20-45 45-45 25 0 45 20 45 45z m-45-15c-8 0-15 7-15 15 0 8 7 15 15 15 8 0 15-7 15-15 0-8-7-15-15-15z m35 332l-402 0c-30 0-55-25-55-55l0-442c0-8 7-15 15-15l482 0c8 0 15 7 15 15l0 442c0 30-25 55-55 55z m-307-482l-120 0 0 64c0 14 12 26 26 26l68 0c14 0 26-12 26-26z m181 0l-150 0 0 110c0 14 12 26 26 26l98 0c14 0 26-12 26-26l0-110z m151 0l-120 0 0 64c0 14 12 26 26 26l68 0c14 0 26-12 26-26z m-94 120c-10 0-19-3-27-7-2 29-26 53-56 53-10 0-88 0-98 0-30 0-54-24-56-53-16 9-22 7-95 7-9 0-18-2-26-6l0 217 452 0 0-217c-16 8-21 6-94 6z m-333 332l402 0c14 0 25-11 25-25l0-66-452 0 0 66c0 14 11 25 25 25z m396-46c0-8-7-15-15-15-8 0-15 7-15 15 0 8 7 15 15 15 8 0 15-7 15-15z m-60 0c0-8-7-15-15-15-8 0-15 7-15 15 0 8 7 15 15 15 8 0 15-7 15-15z m-60 0c0-8-7-15-15-15-8 0-15 7-15 15 0 8 7 15 15 15 8 0 15-7 15-15z"/>
<glyph glyph-name="door-phone" unicode="&#57376;" d="M472 296l0 100c0 22-18 40-40 40l-352 0c-22 0-40-18-40-40l0-200c0-22 18-40 40-40l352 0c22 0 40 18 40 40 0 11 9 20 20 20 11 0 20-9 20-20 0-44-36-80-80-80l-156 0 0-40 70 0c11 0 20-9 20-20 0-11-9-20-20-20l-180 0c-11 0-20 9-20 20 0 11 9 20 20 20l70 0 0 40-156 0c-44 0-80 36-80 80l0 200c0 44 36 80 80 80l352 0c44 0 80-36 80-80l0-100c0-11-9-20-20-20-11 0-20 9-20 20z m-344 5c-6 9-10 21-10 33 0 33 27 60 60 60 33 0 60-27 60-60 0-12-4-24-10-33 11-7 22-16 30-27 7 11 18 20 29 27-6 9-10 21-10 33 0 33 27 60 60 60 33 0 60-27 60-60 0-12-4-24-10-33 23-14 41-37 46-65 2-10 0-20-6-28-7-7-16-12-26-12l-287 0c-10 0-19 4-26 12-6 8-8 18-6 28 5 28 23 51 46 65z m189 33c0-11 9-20 20-20 11 0 20 9 20 20 0 11-9 20-20 20-11 0-20-9-20-20z m-35-98l110 0c-8 22-30 38-54 38l-2 0c-24 0-46-16-54-38z m-124 98c0-11 9-20 20-20 11 0 20 9 20 20 0 11-9 20-20 20-11 0-20-9-20-20z m-35-98l110 0c-8 22-30 38-54 38l-2 0c-24 0-46-16-54-38z"/>
<glyph glyph-name="dore" unicode="&#57377;" d="M117 510c-4-2-9-8-10-11-1-2-1-9-1-15l0-13-18 0c-20 0-27-1-39-6-23-10-42-33-47-58-1-4-1-56-1-171 0-181 0-171 6-186 10-24 33-43 58-48 4 0 62-1 191-1 156 0 187 1 192 2 36 7 63 40 63 76 0 8-2 12-6 17-5 4-8 5-14 5-7 0-11-2-15-7-4-4-5-5-6-17-2-18-16-32-33-35-9-1-353-1-362 0-17 3-31 17-33 34-1 9-1 312 0 320 2 18 16 32 34 34 3 1 11 1 18 1l12 0 0-12c0-14 0-16 5-21 4-5 8-6 14-6 7 0 11 1 15 6 5 5 5 7 5 21l0 12 90 0 0-12c0-14 1-17 6-22 4-4 8-5 14-5 6 0 10 1 14 6 5 5 6 7 6 21l0 12 90 0 0-12c0-14 1-17 6-22 5-4 8-5 14-5 6 0 11 1 15 6 4 5 5 7 5 21l0 12 12 0c7 0 15 0 19-1 17-2 31-16 34-34 0-3 1-53 1-113 0-73 0-108 1-110 1-4 7-9 10-11 4-2 12-2 16 0 4 1 10 6 11 10 1 3 2 23 2 116 0 77-1 115-1 119-5 25-24 48-48 58-12 5-18 6-39 6l-18 0 0 13c0 13-1 16-5 21-4 4-9 6-15 6-6 0-9-1-14-5-5-5-6-8-6-22l0-13-90 0 0 13c0 14-1 17-6 22-5 4-8 5-14 5-6 0-10-1-14-5-5-5-6-8-6-22l0-13-90 0 0 13c0 6 0 13-1 15-1 4-6 9-10 11-4 1-13 1-17 0z m129-200c-3-2-9-8-10-11-1-2-1-14-1-33l0-30-30 0c-33 0-34 0-39-6-4-4-6-7-6-14 0-6 2-9 6-13 5-6 6-7 39-7l30 0 0-29c0-19 0-31 1-33 1-4 7-9 11-11 4-2 12-2 16 0 4 2 9 7 11 11 0 2 1 14 1 33l0 29 29 0c19 0 31 1 33 2 4 1 9 6 11 10 1 2 1 6 1 8 0 3 0 7-1 9-2 4-7 9-11 10-2 1-14 1-33 1l-29 0 0 30c0 19-1 31-1 33-2 3-7 9-11 11-4 1-13 1-17 0z"/>
<glyph glyph-name="download" unicode="&#57378;" d="M247 510c-3-2-9-8-10-11-1-2-1-43-1-130 0-139-1-130 6-136 4-4 8-6 14-6 6 0 9 2 14 6 6 6 6-3 6 136 0 87-1 128-1 130-2 4-7 9-11 11-4 1-13 1-17 0z m-137-222c-4-2-9-8-10-11-2-4-2-12 0-16 2-4 112-117 119-122 11-8 22-11 36-11 11 0 19 2 28 7 6 3 13 9 67 63 35 35 61 61 62 63 1 4 1 12 0 16-1 4-7 9-11 11-4 1-12 1-16 0-3-1-24-22-62-60-56-56-59-58-63-59-4-1-7-1-10 0-4 1-7 3-62 59-35 35-59 59-61 60-4 1-13 1-17 0z m-98-188c-3-2-9-8-10-11-1-4-1-17 0-25 7-30 33-56 63-62 4 0 62-1 191-1 156 0 187 1 192 2 36 7 63 40 63 76 0 8-2 12-6 17-5 4-8 5-14 5-7 0-11-2-15-7-4-4-5-5-6-17-2-18-16-32-33-35-9-1-353-1-362 0-17 3-31 17-33 35-1 3-1 8-2 10 0 4-6 11-11 13-4 1-13 1-17 0z"/>
<glyph glyph-name="email" unicode="&#57379;" d="M402 69c6-9 3-21-6-27-42-28-90-42-140-42 0 0 0 0 0 0-68 0-132 26-180 74-48 48-75 111-76 179-1 69 25 134 74 183 48 48 112 76 180 76 1 0 1 0 2 0 53 0 105-17 149-48 43-31 75-74 93-123 4-11-2-22-12-26-11-4-22 2-26 12-31 87-113 145-204 145-1 0-1 0-1 0-58 0-112-23-153-65-41-41-63-95-62-153 1-118 98-214 216-214l0 0c42 0 83 12 118 35 9 6 22 4 28-6z m110 166c0-50-41-91-91-91-32 0-60 17-77 42-20-26-52-43-88-43-62 0-113 51-113 113 0 62 51 113 113 113 28 0 54-10 74-28l0 4c0 11 9 20 20 20 11 0 20-9 20-20l0-110c0-28 23-51 51-51 28 0 51 23 51 51 0 11 9 20 20 20 11 0 20-9 20-20z m-183 21c0 40-33 73-73 73-40 0-73-33-73-73 0-40 33-73 73-73 40 0 73 33 73 73z"/>
<glyph glyph-name="game" unicode="&#57380;" d="M508 161c-3-11-14-17-25-14-10 3-16 14-13 25 3 11 3 24-1 36l-45 136c-9 25-32 42-59 42l-218 0c-27 0-50-17-59-42l-45-136c-5-16-4-33 4-48 7-15 20-26 35-31 16-5 33-4 47 4 15 7 26 20 31 36l3 9c9 25 32 42 59 42l68 0c27 0 50-17 59-42l3-9c8-25 32-43 58-43 5 0 10 1 15 2 11 3 22-4 24-15 3-10-3-21-14-24-8-2-16-3-25-3-21 0-41 7-59 19-18 13-30 31-37 51l-3 9c-3 9-11 15-21 15l-68 0c-10 0-18-6-21-15l-3-9c-8-25-26-46-50-59-25-12-52-14-78-6-26 9-47 27-59 52-12 24-14 52-6 77l45 136c14 42 53 70 97 70l218 0c44 0 83-28 97-70l45-136c6-19 7-40 1-59z m-157 193c-11 0-20-9-20-20 0-11 9-20 20-20 11 0 20 9 20 20 0 11-9 20-20 20z m0-120c11 0 20 9 20 20 0 11-9 20-20 20-11 0-20-9-20-20 0-11 9-20 20-20z m-40 80c-11 0-20-9-20-20 0-11 9-20 20-20 11 0 20 9 20 20 0 11-9 20-20 20z m80-40c11 0 20 9 20 20 0 11-9 20-20 20-11 0-20-9-20-20 0-11 9-20 20-20z m-230-40c11 0 20 9 20 20l0 20 20 0c11 0 20 9 20 20 0 11-9 20-20 20l-20 0 0 20c0 11-9 20-20 20-11 0-20-9-20-20l0-20-20 0c-11 0-20-9-20-20 0-11 9-20 20-20l20 0 0-20c0-11 9-20 20-20z"/>
<glyph glyph-name="home" unicode="&#57381;" d="M241 500c-16-5-11 0-128-116-59-60-109-110-111-112-4-7-2-20 4-26 6-5 17-6 23-3 2 1 7 5 12 10l8 8 0-91c1-90 1-91 3-99 6-23 21-42 42-52 18-9 6-8 162-8 134 0 138 0 146 2 22 5 41 21 52 41 5 12 8 22 8 34 0 8 0 9-2 13-6 9-18 12-28 7-6-3-9-8-11-19 0-6-2-11-3-15-6-12-18-21-32-23-9-1-251-1-260 0-18 3-32 16-35 34-1 4-1 49-1 112l0 105 78 78c43 42 79 78 81 79 4 2 12 2 17-1 2-1 38-36 80-78l76-77 0-119 3-4c7-13 27-13 35 0l2 4 0 78 9-9c10-10 13-12 21-12 8 0 13 3 17 9 4 6 4 16 1 22-1 2-51 52-110 111l-107 108-9 4c-5 3-11 5-14 5-8 2-22 2-29 0z"/>
<glyph glyph-name="hr" unicode="&#57382;" d="M224 247c-8 0-15-7-15-15l0-33-34 0 0 33c0 8-7 15-15 15-9 0-15-7-15-15l0-96c0-9 6-15 15-15 8 0 15 6 15 15l0 33 34 0 0-33c0-9 7-15 15-15 8 0 15 6 15 15l0 96c0 8-7 15-15 15z m143-43c0 11-4 22-12 30-8 8-19 13-31 13l-36 0c-8 0-15-7-15-15l0-96c0-9 7-15 15-15 8 0 15 6 15 15l0 25 10 0 28-35c3-3 7-5 11-5 4 0 7 1 10 3 6 5 7 15 2 21l-18 22c3 2 6 4 9 6 8 8 12 19 12 31z m-64 13l21 0c4 0 7-1 9-4 0 0 1 0 1 0 2-2 3-6 3-9 0-4-1-7-3-9 0 0 0-1 0-1-3-2-6-3-10-3l-21 0 0 26z m152 86l24 60c2 5 1 10-2 14-2 4-7 7-12 7l-96 0c-7 0-12-4-14-10l-29-71-55 0 0 1c0 44-28 72-50 84 12 13 19 30 18 49-2 31-27 56-58 59-37 3-69-27-69-63 0-17 7-33 19-45-33-17-51-50-51-84l0-1-23 0c-31 0-57-25-57-57l0-214c0-9 6-15 14-16 9 0 16 7 16 15l0 33 452 0 0-32c0-9 6-15 14-16 9 0 16 7 16 15l0 215c0 32-26 57-57 57z m-76 50l64 0-20-50-64 0z m-236 80c0 18 14 33 33 33 18 0 33-15 33-33 0-19-15-33-33-33-19 0-33 14-33 33z m-33-129c0 37 30 66 66 66 35 0 65-29 65-66l0-1-131 0z m-40-31l372 0c22 0 40-18 40-40l0-139-452 0 0 139c0 22 18 40 40 40z"/>
<glyph glyph-name="id-card" unicode="&#57383;" d="M472 213l0 144c0 23-18 40-40 40l-136 0c-11 0-20 9-20 20 0 12-9 20-20 20-11 0-20-8-20-20 0-11 9-20 20-20 11 0 20-8 20-20 0-11-9-20-20-20-26 0-48 17-57 40l-119 0c-22 0-40-17-40-40l0-243c0-22 18-40 40-40l352 0c22 0 40 18 40 40 0 12 9 20 20 20 11 0 20-8 20-20 0-44-36-80-80-80l-352 0c-44 0-80 36-80 80l0 243c0 45 36 80 80 80l119 0c9 24 31 40 57 40 26 0 48-16 57-40l119 0c44 0 80-35 80-80l0-144c0-11-9-20-20-20-11 0-20 9-20 20z m-39 50c0 12-9 20-20 20l-86 0c-11 0-20-8-20-20 0-11 9-20 20-20l86 0c11 0 20 9 20 20z m-106-61c-11 0-20-8-20-20 0-11 9-20 20-20l56 0c11 0 20 9 20 20 0 12-9 20-20 20z m-201 22c-7 11-12 24-12 37 0 35 28 63 63 63 35 0 63-28 63-63 0-13-5-26-12-37 23-13 40-36 45-63 2-10 0-20-6-28-7-8-16-13-26-13l-128 0c-10 0-19 5-26 13-6 8-8 18-6 28 5 27 22 50 45 63z m28 37c0-12 10-23 23-23 13 0 23 11 23 23 0 13-10 23-23 23-13 0-23-10-23-23z m-32-101l110 0c-8 23-30 38-54 38l-2 0c-24 0-46-15-54-38z"/>
<glyph glyph-name="info" unicode="&#57384;" d="M20 0c-5 0-10 2-14 6-6 5-8 14-5 21l46 113c-31 40-47 87-47 136 0 63 27 123 76 167 48 45 112 69 180 69 68 0 132-24 180-69 49-44 76-104 76-167 0-45-14-90-41-128-6-9-18-11-27-5-10 7-12 19-5 28 21 32 33 68 33 105 0 108-97 196-216 196-119 0-216-88-216-196 0-44 16-85 45-120 5-5 6-13 3-20l-31-78 91 40c5 3 11 3 16 1 29-13 60-19 92-19 37 0 73 9 105 25 10 5 22 1 27-9 5-10 1-22-9-27-37-19-80-29-123-29-34 0-68 6-99 18l-129-56c-3-1-5-2-8-2z m256 187l0 108c0 11-9 20-20 20-11 0-20-9-20-20l0-108c0-11 9-20 20-20 11 0 20 9 20 20z m-20 197c-11 0-20-9-20-20 0-11 9-20 20-20 11 0 20 9 20 20 0 11-9 20-20 20z"/>
<glyph glyph-name="instagram" unicode="&#57385;" d="M359 512l-206 0c-85 0-153-68-153-153l0-206c0-85 68-153 153-153l206 0c85 0 153 68 153 153l0 206c0 85-68 153-153 153z m101-359c0-56-45-101-101-101l-206 0c-56 0-101 45-101 101l0 206c0 56 45 101 101 101l206 0c56 0 101-45 101-101z m-204 235c-73 0-132-59-132-132 0-73 59-132 132-132 73 0 132 59 132 132 0 73-59 132-132 132z m0-213c-45 0-81 36-81 81 0 45 36 81 81 81 45 0 81-36 81-81 0-45-36-81-81-81z m164 212c0-17-14-31-31-31-18 0-32 14-32 31 0 18 14 32 32 32 17 0 31-14 31-32z"/>
<glyph glyph-name="it" unicode="&#57386;" d="M379 231l0 6 69 0c7-9 17-15 29-15 19 0 35 16 35 35 0 19-16 35-35 35-12 0-22-6-29-15l-69 0 0 6c0 16-6 29-15 40 1 1 2 3 3 4l70 0c5 0 10 2 14 6l40 40c4 4 6 9 6 14l0 61c9 7 15 17 15 29 0 19-16 35-35 35-19 0-35-16-35-35 0-12 6-22 15-29l0-53-28-28-50 0 0 48c0 33-27 60-60 60l-259 0c-33 0-60-27-60-60l0-52c0-16 6-29 15-40-9-11-15-24-15-40l0-52c0-16 6-29 15-40-9-11-15-25-15-40l0-52c0-33 27-60 60-60l159 0c11 0 20 9 20 20 0 11-9 20-20 20l-159 0c-11 0-20 9-20 20l0 52c0 11 9 20 20 20l84 0 0-47c0-11 9-20 20-20 11 0 20 9 20 20l0 47 135 0c11 0 20-9 20-20l0-52c0-11-9-20-20-20-11 0-20-9-20-20 0-11 9-20 20-20 33 0 60 27 60 60l0 48 51 0 28-28 0-55c-10-6-16-17-16-29 0-19 16-35 35-35 19 0 35 16 35 35 0 11-5 22-14 28l0 64c0 5-2 11-6 14l-40 40c-4 4-9 6-14 6l-71 0c-1 1-2 3-3 4 9 11 15 24 15 40z m-339 184c0 11 9 20 20 20l84 0 0-46c0-11 9-20 20-20 11 0 20 9 20 20l0 46 135 0c11 0 20-9 20-20l0-52c0-11-9-20-20-20l-259 0c-11 0-20 9-20 20z m20-204c-11 0-20 9-20 20l0 52c0 11 9 20 20 20l84 0 0-47c0-11 9-20 20-20 11 0 20 9 20 20l0 47 135 0c11 0 20-9 20-20l0-52c0-11-9-20-20-20z m13 178c0 11 9 20 20 20 11 0 20-9 20-20 0-11-9-20-20-20-11 0-20 9-20 20z m40-133c0-11-9-20-20-20-11 0-20 9-20 20 0 11 9 20 20 20 11 0 20-9 20-20z m-19-112c11 0 20-9 20-20 0-11-9-20-20-20-11 0-20 9-20 20 0 11 9 20 20 20z"/>
<glyph glyph-name="job-security" unicode="&#57387;" d="M468 419l-205 91c-5 3-11 3-16 0l-203-91c-7-3-12-10-12-18l0-157c0-60 24-121 65-168 21-23 45-42 71-55 28-14 58-21 88-21 42 0 84 14 120 40 8 6 10 19 4 28-7 9-19 11-28 4-29-21-62-32-96-32-96 0-184 97-184 204l0 144 183 82 185-82 0-144c0-37-11-74-31-108-6-10-2-22 7-27 10-6 22-3 27 7 24 39 37 84 37 128l0 157c0 8-5 15-12 18z m-123-76l-99-137c-3-4-6-4-8-4-2 0-5 0-8 3l-64 62c-8 7-20 7-28-1-8-7-8-20 0-28l64-62c0 0 0 0 0 0 10-9 22-14 36-14 1 0 2 0 3 0 14 1 28 8 37 19 0 0 0 0 0 1l99 138c6 9 4 21-5 28-9 6-21 4-27-5z"/>
<glyph glyph-name="laptop" unicode="&#57388;" d="M238 509c-7-3-9-8-12-23l-2-13-4-2c-2-1-6-4-8-5l-5-3-12 4c-14 5-20 5-26 2-6-3-7-5-15-19-5-11-6-13-6-18 0-9 3-12 17-21l11-8 0-10-11-8c-13-11-15-14-14-24 0-6 1-8 5-16 8-13 10-16 15-18 7-3 12-3 26 3 10 4 12 5 13 3 1 0 5-2 8-4 3-2 6-4 6-5 0-2 1-8 3-14 2-14 5-18 12-22 4-2 6-2 19-2 15 0 15 1 19 3 6 4 9 10 11 25 2 11 2 12 4 13 2 1 6 3 9 5l7 4 12-4c13-4 18-5 24-2 6 2 9 6 15 19 4 9 5 13 5 17 0 9-2 13-15 22l-12 8 0 5c0 4 1 4 9 11 17 12 19 15 18 25 0 6-1 8-8 19-9 14-13 17-22 17-5 0-8-1-18-4l-11-5-6 3c-3 2-6 4-7 5-2 0-2 0-5 16-2 13-3 16-9 21-4 2-4 2-20 3-16 0-16 0-20-3z m31-73c14-4 25-18 27-33 2-16-8-32-22-39-7-3-8-4-17-4-9 0-11 1-17 4-8 4-16 13-20 21-1 4-2 7-2 14 0 9 0 10 3 16 7 15 23 25 38 23 3 0 8-1 10-2z m-212-11c-6-1-11-6-13-10l-3-5 0-271-18-34c-10-18-19-35-20-38-2-7-3-20-2-27 5-19 18-33 36-38 5-2 27-2 220-2 212 0 214 0 221 2 13 4 23 13 30 27 3 6 3 7 3 19 1 12 0 14-1 19-1 3-10 19-19 36l-18 31 0 29c0 28 0 29-2 33-1 2-4 6-6 7-4 3-6 3-12 3-9 0-13-2-17-9-3-5-3-5-3-26l-1-21-350 0 0 235 11 0c9 0 12 0 15 2 8 4 13 14 10 23-1 7-7 13-14 15-5 1-42 1-47 0z m399-345c9-16 15-29 15-30 0-2-1-4-2-6l-3-4-70 0-70 0-1 4c-1 5-9 14-14 14-2 1-28 1-58 1l-54-1-4-2c-4-3-7-8-8-12l-1-4-67 0c-73 0-72 0-76 5-1 1-2 4-2 5 0 2 25 48 30 57l2 2 184 0 184-1z m-54 345c-5-2-12-8-14-14-2-9 2-18 9-23 4-2 4-3 20-3l15 0 1-52 0-52 2-4c8-14 29-13 36 1l2 4 0 64c0 69 1 67-5 73-6 6-7 6-36 7-16 0-28-1-30-1z"/>
<glyph glyph-name="laptop-software" unicode="&#57389;" d="M202 312l0-61c0-11 9-20 20-20 11 0 20 9 20 20l0 61c0 11-9 20-20 20-11 0-20-9-20-20z m305-197c-1 1-1 3-2 4l-45 60c-3 7-10 12-18 12l-352 0 0 210c0 22 18 40 40 40l252 0c22 0 40-18 40-40l0-130c0-11 9-20 20-20 11 0 20 9 20 20l0 130c0 44-36 80-80 80l-252 0c-44 0-80-36-80-80l0-224-43-58c-1-1-1-3-2-4-8-19-6-40 5-57 11-17 30-27 50-27l392 0c20 0 39 10 50 27 11 17 13 38 5 57z m-38-35c-4-6-10-9-17-9l-126 0c0 11-9 20-20 20l-100 0c-11 0-20-9-20-20l-126 0c-7 0-13 3-17 9-3 5-4 11-2 17l39 53 352 0 39-53c2-6 1-12-2-17z m-337 252l0-81c0-11 9-20 20-20 11 0 20 9 20 20l0 81c0 11-9 20-20 20-11 0-20-9-20-20z m140 50l0-131c0-11 9-20 20-20 11 0 20 9 20 20l0 131c0 11-9 20-20 20-11 0-20-9-20-20z m70-101l0-30c0-11 9-20 20-20 11 0 20 9 20 20l0 30c0 11-9 20-20 20-11 0-20-9-20-20z"/>
<glyph glyph-name="learn" unicode="&#57390;" d="M487 55c-8-2-14-8-15-16l-112 0c8 23 30 38 54 38l1 0c1 0 1 0 1 0 32 1 59 27 59 60 0 33-27 60-60 60-33 0-60-27-60-60 0-12 4-24 10-33-12-7-22-16-30-27-8 11-18 20-29 27 6 9 10 21 10 33 0 33-27 60-60 60-33 0-60-27-60-60 0-12 4-24 10-33-11-7-22-16-30-27-8 11-18 20-29 27 6 9 10 21 10 33 0 33-27 60-60 60-33 0-60-27-60-60 0-12 4-24 10-33-23-14-41-37-46-65-2-10 0-20 6-28 7-7 16-12 26-12l446 0c10 0 19 5 25 12 7 8 9 18 7 28-2 11-13 18-24 16z m-232 22l1 0c25 0 46-15 55-38l-110 0c8 23 30 38 54 38z m160 80c11 0 20-9 20-20 0-11-9-20-20-20-11 0-20 9-20 20 0 11 9 20 20 20z m-159 0c11 0 20-9 20-20 0-11-9-20-20-20-11 0-20 9-20 20 0 11 9 20 20 20z m-159 0c11 0 20-9 20-20 0-11-9-20-20-20-11 0-20 9-20 20 0 11 9 20 20 20z m-55-118c8 23 30 38 54 38l1 0c25 0 47-15 55-38z m165 207c6-3 12-5 19-5 7 0 13 2 20 5l85 50c13 7 20 20 20 34 0 14-7 27-20 34l-85 50c-13 7-27 7-39 0-13-7-20-20-20-34l0-100c0-14 7-27 20-34z m20 132l83-48-83-48z m285 53l0-189c0-9-2-17-4-25-3-9-11-14-19-14-2 0-4 0-7 1-10 4-16 15-12 25 1 5 2 9 2 13l0 189c0 22-18 40-40 40l-352 0c-22 0-40-18-40-40l0-189c0-4 1-8 2-13 4-10-2-21-13-25-10-3-21 2-25 13-3 8-4 16-4 25l0 189c0 44 36 80 80 80l352 0c44 0 80-36 80-80z"/>
<glyph glyph-name="like" unicode="&#57391;" d="M125 468c-56-9-100-45-117-97-2-5-4-14-5-20-2-10-2-12-2-32-1-20 0-23 1-30 11-50 42-91 105-139 5-4 24-18 40-30 41-30 52-38 68-55 8-8 16-15 18-16 13-9 33-9 46 0 2 1 10 8 18 16 16 17 27 25 68 55 51 38 68 52 89 73 23 23 37 44 47 68 9 22 11 37 10 63 0 21-2 34-9 52-19 50-62 84-116 92-12 2-37 2-48 0-31-4-59-17-79-35l-3-3-4 3c-20 19-47 31-78 35-11 2-38 2-49 0z m36-85c29-4 47-23 52-56 2-13 5-19 12-27 13-15 37-18 54-7 8 6 14 13 17 22 1 2 2 7 3 12 3 21 13 38 27 47 13 9 35 12 53 7 30-7 48-36 47-72-1-5-1-11-2-14-5-19-16-37-36-57-16-17-32-30-76-64-26-20-36-28-48-38l-8-7-8 7c-12 10-22 18-48 38-45 34-60 47-77 64-19 20-30 38-35 57-1 3-2 9-2 14-1 18 4 35 12 47 13 21 35 30 63 27z"/>
<glyph glyph-name="location" unicode="&#57392;" d="M256 432c-69 0-125-56-125-125 0-69 56-125 125-125 12 0 23 2 34 5 11 3 17 14 14 24-3 11-14 17-25 14-7-2-15-3-23-3-47 0-85 38-85 85 0 47 38 85 85 85 47 0 85-38 85-85 0-8-1-17-4-24-3-11 3-22 14-25 10-4 22 2 25 13 3 12 5 24 5 36 0 69-56 125-125 125z m145 20c-39 39-90 60-145 60-55 0-106-21-145-60-39-39-60-90-60-145 0-40 11-77 34-114 20-32 45-60 72-90 27-29 54-59 76-94 4-5 10-9 17-9l12 0c7 0 13 4 17 9 22 35 49 65 76 94 27 30 52 58 72 90 23 37 34 74 34 114 0 55-21 106-60 145z m-76-322c-23-26-48-52-69-83-21 31-46 57-69 83-52 56-96 105-96 177 0 91 74 165 165 165 91 0 165-74 165-165 0-72-44-121-96-177z"/>
<glyph glyph-name="location-a" unicode="&#57393;" d="M121 307c0-46 38-84 85-84 11 0 20-9 20-20 0-11-9-20-20-20-69 0-125 56-125 124 0 69 56 125 125 125 68 0 124-56 124-125 0-11-9-20-20-20-11 0-20 9-20 20 0 47-38 85-84 85-47 0-85-38-85-85z m15-176c-51 56-95 104-95 177 0 90 74 164 165 164 90 0 164-74 164-164 0-11 9-20 20-20l0 0c11 0 20 9 20 20 0 54-21 106-60 144-38 39-90 60-144 60-55 0-106-21-145-60-39-38-60-90-60-144 0-40 11-78 34-114 19-33 45-60 72-90 26-29 54-59 76-94 4-6 10-9 17-9 3 0 7 1 10 3 10 6 12 18 6 28-23 37-52 69-80 99z m371-10c-4-4-10-6-15-6-5 0-10 2-13 5l-3 2 0-66c0-31-25-56-56-56l-112 0c-31 0-56 25-56 56l0 65-2-1c-8-7-21-7-28 1-8 8-7 21 1 28l103 95c22 20 55 20 76 0l66-61c1 0 2-1 3-2l35-32c8-7 8-20 1-28z m-71 38l-60 55c-7 6-17 6-23 0l-62-56 0-102c0-9 8-16 17-16l112 0c9 0 16 7 16 16z"/>
<glyph glyph-name="login" unicode="&#57394;" d="M234 508c-52-9-95-48-108-100-8-31-4-65 10-93 8-16 23-35 36-45l3-3-11-4c-57-22-106-65-135-119-14-26-26-64-26-82 0-26 19-51 45-58 6-1 13-1 50-1l43 0 4 2c12 9 12 26 0 34l-4 3-41 0c-27 1-42 1-44 2-7 3-12 11-12 18 0 5 4 24 9 35 1 4 5 14 9 21 32 65 95 111 169 120 5 1 17 2 28 2 25 0 43-3 67-11 14-5 19-5 25-1 6 4 10 10 10 17 0 10-5 17-17 21l-5 1 5 4c17 14 34 38 41 61 6 16 7 23 7 43 0 20-1 28-6 43-13 37-42 68-78 82-17 7-27 9-47 9-13 1-21 0-27-1z m40-40c30-5 56-26 69-54 7-14 8-21 8-39 0-14 0-17-2-24-10-36-39-63-75-69-10-2-33-1-42 2-16 4-34 15-44 27-11 12-19 27-23 42-3 12-3 32 0 44 6 21 18 40 35 53 22 17 47 23 74 18z m95-271c-18-5-28-16-35-34l-3-7-67 0c-54 0-68 0-70-1-4-2-41-40-44-44-2-5-3-10-1-15 1-4 4-8 20-24 10-11 21-21 23-23l5-3 38 0c35 0 38 0 41 2 15 8 15 28 0 36-3 2-6 2-34 2l-30 0-16 15 16 16 70 0c76 0 73-1 79 5 4 4 4 4 9 20 4 13 6 16 12 17 5 1 63 1 68 0 6-1 8-4 12-14 7-18 8-23 8-43 0-17 0-20-3-28-4-15-8-25-11-28-4-4-9-4-45-4-29 1-31 1-33 3-4 2-7 8-10 20-4 11-5 14-10 17-5 4-14 5-21 2-5-3-10-9-11-15 0-4 3-18 8-31 7-17 19-29 36-34 8-2 84-2 92 0 15 5 27 15 34 28 4 10 10 26 12 39 2 9 3 13 3 31 0 17-1 21-3 30-2 12-8 28-12 38-5 9-14 19-23 24-11 6-14 6-58 6-39 0-40 0-46-3z m52-78c-14-7-14-28 0-35 5-2 13-3 18-1 3 1 8 5 10 10 3 6 2 15-2 20-5 6-8 8-15 8-5 1-7 0-11-2z"/>
<glyph glyph-name="logout" unicode="&#57395;" d="M335 512l-255 0c-44 0-80-36-80-80l0-20c0-11 9-20 20-20 11 0 20 9 20 20l0 20c0 22 18 40 40 40l255 0c22 0 40-18 40-40l0-352c0-22-18-40-40-40l-255 0c-22 0-40 18-40 40l0 20c0 11-9 20-20 20-11 0-20-9-20-20l0-20c0-44 36-80 80-80l255 0c44 0 80 36 80 80l0 352c0 44-36 80-80 80z m-289-270c0 0 0 0 0 0-8 8-8 20 0 28l74 75c8 8 8 20 0 28-8 8-20 8-28 0l-74-75c-24-23-24-61 0-85l74-75c4-4 9-6 14-6 5 0 10 2 14 6 8 7 8 20 0 28z m217 34l-143 0c-11 0-20-9-20-20 0-11 9-20 20-20l143 0c11 0 20 9 20 20 0 11-9 20-20 20z"/>
<glyph glyph-name="magnifying-glass" unicode="&#57396;" d="M512 302c0-36-9-72-27-104-6-10-18-13-28-7-9 5-13 17-7 27 14 25 22 54 22 84 0 94-76 170-170 170-94 0-170-76-170-170 0-94 76-170 170-170 29 0 58 8 83 22 10 5 22 2 27-8 6-10 2-22-7-27-31-18-67-27-103-27-50 0-97 18-133 48l-135-134c-4-4-9-6-14-6-5 0-10 2-14 6-8 8-8 20 0 28l135 134c-31 36-49 83-49 134 0 116 94 210 210 210 116 0 210-94 210-210z m-260 8c-7 10-12 23-12 37 0 35 28 63 63 63 35 0 63-28 63-63 0-14-5-27-12-37 23-14 40-37 45-64 2-10 0-20-6-28-7-8-16-12-26-12l-128 0c-10 0-19 4-26 12-6 8-8 18-6 28 5 27 22 50 45 64z m28 37c0-13 10-23 23-23 13 0 23 10 23 23 0 13-10 23-23 23-13 0-23-10-23-23z m-32-101l110 0c-8 22-30 38-54 38l-2 0c-24 0-46-16-54-38z"/>
<glyph glyph-name="mail" unicode="&#57397;" d="M63 449c-30-6-55-33-61-63-1-4-1-45-1-130 0-137 0-131 6-146 10-24 33-43 58-48 8-1 373-1 382 0 35 7 64 40 64 76 0 9-2 13-6 18-5 4-8 5-14 5-7 0-11-2-15-7-4-4-5-5-6-17-2-18-16-32-33-35-9-1-353-1-362 0-18 3-31 17-33 35-1 4-1 53-1 118l0 111 87-54c48-30 90-56 93-58 12-5 21-7 35-7 14 0 23 2 34 7 3 2 45 28 93 58l87 54 1-67c0-48 1-67 1-68 2-3 8-8 11-9 4-2 12-2 15 0 4 1 10 6 11 10 1 3 2 16 2 76 0 48-1 74-1 78-6 31-32 57-62 63-9 2-376 2-385 0z m381-41c11-5 19 1-80-60-49-31-90-56-91-57-4-2-12-4-17-4-5 0-13 2-17 4-4 2-179 111-180 112-1 1 10 6 16 7 3 0 86 0 184 0l179 0z"/>
<glyph glyph-name="meet" unicode="&#57398;" d="M61 392c33 0 60 27 60 60 0 33-27 60-60 60-33 0-60-27-60-60 0-33 27-60 60-60z m0 80c11 0 20-9 20-20 0-11-9-20-20-20-11 0-20 9-20 20 0 11 9 20 20 20z m431-199c11 0 20 9 20 20l0 19c0 33-27 60-60 60l-9 0c-7 0-14-4-18-11l-50-95-39 0 0 47c0 33-27 60-60 60l-40 0c-33 0-60-27-60-60l0-47-39 0-50 95c-4 7-11 11-18 11l-9 0c-33 0-60-27-60-60l0-118c0-26 16-47 39-56 3-2 6-3 10-3 0 0 0 0 0 0 2 0 4-1 5-1 9-2 15-10 15-19l0-95c0-11 9-20 20-20 11 0 20 9 20 20l0 95c0 7-1 13-3 19l43 0 0-74c0-33 27-60 60-60l95 0c33 0 60 27 60 60l0 74 42 0c-2-6-3-12-3-19l0-95c0-11 9-20 20-20 11 0 20 9 20 20l0 95c0 9 6 17 15 19 1 0 3 1 5 1 0 0 0 0 0 0 4 0 7 1 10 3 23 9 39 30 39 56 0 11-9 20-20 20-11 0-20-9-20-20 0-9-6-17-15-19-1 0-3-1-5-1 0 0 0 0 0 0l-88 0 0 52 23 0c7 0 14 4 18 11l50 95c10-2 17-10 17-20l0-19c0-11 9-20 20-20z m-276 40c0 11 9 20 20 20l40 0c11 0 20-9 20-20l0-47-80 0z m-156-139c0 0 0 0 0 0-2 0-4 1-5 1-9 2-15 10-15 19l0 118c0 10 7 18 17 20l50-95c4-7 11-11 18-11l24 0 0-52z m264-114c0-11-9-20-20-20l-95 0c-11 0-20 9-20 20l0 166 135 0z m127 332c33 0 60 27 60 60 0 33-27 60-60 60-33 0-60-27-60-60 0-33 27-60 60-60z m0 80c11 0 20-9 20-20 0-11-9-20-20-20-11 0-20 9-20 20 0 11 9 20 20 20z m-195-80c33 0 60 27 60 60 0 33-27 60-60 60-33 0-60-27-60-60 0-33 27-60 60-60z m0 80c11 0 20-9 20-20 0-11-9-20-20-20-11 0-20 9-20 20 0 11 9 20 20 20z"/>
<glyph glyph-name="meeting" unicode="&#57399;" d="M512 451l0-115c0-33-27-60-61-60-4 0-8-4-8-8l0-25c0-11-7-21-17-26-4-1-7-2-11-2-7 0-15 3-20 8 0 0 0 0 0 1l-39 39c-5 5-8 8-12 9-11 4-16 16-12 26 4 11 16 16 26 12 12-5 20-12 27-18 0 0 0-1 0-1l18-19c3 25 23 44 48 44 12 0 21 9 21 20l0 115c0 12-9 21-21 21l-89 0c-11 0-20 9-20 20 0 11 9 20 20 20l89 0c34 0 61-27 61-61z m-360-80c11 0 20 9 20 20 0 11-9 20-20 20-11 0-20-9-20-20 0-11 9-20 20-20z m70 0c11 0 20 9 20 20 0 11-9 20-20 20-11 0-20-9-20-20 0-11 9-20 20-20z m-139 0c11 0 20 9 20 20 0 11-9 20-20 20-11 0-20-9-20-20 0-11 9-20 20-20z m429-342l0-9c0-11-9-20-20-20-11 0-20 9-20 20l0 9c0 4-2 8-5 10-10 9-27 20-53 20-27 0-44-11-54-20-3-2-5-6-5-10l0-9c0-11-9-20-20-20-11 0-20 9-20 20l0 9c0 4-2 8-5 10-10 9-28 20-54 20-26 0-44-11-54-20-3-2-5-6-5-10l0-9c0-11-9-20-20-20-11 0-20 9-20 20l0 9c0 4-2 8-5 10-10 9-27 20-53 20-27 0-44-11-54-20-3-2-5-6-5-10l0-9c0-11-9-20-20-20-11 0-20 9-20 20l0 9c0 15 7 30 18 40 7 7 17 14 30 20-5 9-8 19-8 30 0 33 27 60 60 60 33 0 60-27 60-60 0-12-3-22-9-31 11-5 19-12 26-17 7 6 16 12 28 17-6 9-9 20-9 31 0 33 27 60 60 60 33 0 60-27 60-60 0-11-3-22-9-31 12-5 21-11 28-17 7 6 16 12 27 17-5 9-8 20-8 31 0 33 27 60 60 60 33 0 60-27 60-60 0-11-3-22-9-31 12-6 22-13 29-19 11-10 18-25 18-40z m-432 90c0-11 9-20 20-20 11 0 20 9 20 20 0 11-9 20-20 20-11 0-20-9-20-20z m176-20c11 0 20 9 20 20 0 11-9 20-20 20-11 0-20-9-20-20 0-11 9-20 20-20z m138 20c0-11 9-20 20-20 11 0 20 9 20 20 0 11-9 20-20 20-11 0-20-9-20-20z m-394 217l0 115c0 34 27 61 61 61l183 0c34 0 61-27 61-61l0-115c0-33-27-60-61-60l-58 0c-11 0-22-5-30-13l-39-39c0-1 0-1 0-1-5-5-13-8-20-8-4 0-7 1-11 2-10 5-17 15-17 26l0 25c0 4-4 8-8 8-34 0-61 27-61 60z m40 0c0-11 9-20 21-20 25 0 45-19 48-44l18 19c0 0 0 1 0 1 16 15 37 24 59 24l58 0c12 0 21 9 21 20l0 115c0 12-9 21-21 21l-183 0c-12 0-21-9-21-21z"/>
<glyph glyph-name="menu" unicode="&#57400;" d="M18 470c-12-12-14-16-14-35 0-19 2-23 14-35l14-14 447 0 14 14c12 12 13 16 13 35 0 19-1 23-13 35l-14 14-447 0z m0-178c-20-21-20-50 0-70l14-14 447 0 14 14c12 12 13 16 13 35 0 18-1 22-13 35l-14 13-447 0z m0-179c-20-20-20-49 0-69l14-14 447 0 14 14c12 12 13 16 13 35 0 18-1 22-13 34l-14 14-447 0z"/>
<glyph glyph-name="mobile" unicode="&#57401;" d="M237 71c11 0 20 9 20 20 0 11-9 20-20 20l-40 0c-12 0-20-9-20-20 0-11 8-20 20-20z m20 312c0-11-9-20-20-20-12 0-20 9-20 20 0 11 8 20 20 20 11 0 20-9 20-20z m117-188c-12 0-20-9-20-20l0-95c0-22-18-40-40-40l-194 0c-23 0-40 18-40 40l0 352c0 22 17 40 40 40l13 0c11 0 20 9 20 20 0 11-9 20-20 20l-13 0c-45 0-80-36-80-80l0-352c0-44 35-80 80-80l194 0c44 0 80 36 80 80l0 95c0 11-9 20-20 20z m-42 317l-40 0c-78 0-141-59-141-131 0-26 7-50 22-71l-21-53c-3-7-1-16 5-21 3-4 8-6 14-6 2 0 5 0 8 2l62 27c15-5 31-8 47-9 1 0 2 0 4 0l40 0c77 0 141 59 141 131l0 0c0 72-64 131-141 131z m101-131c0-50-46-91-101-91l-37 0c-1 0-2 0-3 0-15 0-30 3-44 9-5 2-11 2-16 0l-24-11 7 18c2 6 1 14-4 20-13 16-20 35-20 55 0 50 45 91 101 91l40 0c55 0 101-41 101-91z m-25 2c0-11-9-20-20-20-12 0-20 9-20 20 0 11 8 20 20 20 11 0 20-9 20-20z m-76 0c0-11-9-20-20-20-12 0-20 9-20 20 0 11 8 20 20 20 11 0 20-9 20-20z"/>
<glyph glyph-name="mobile-2" unicode="&#57402;" d="M368 51c-6-15-16-28-29-37-14-9-30-14-46-14l-194 0c-44 0-80 36-80 80l0 352c0 44 36 80 80 80l194 0c35 0 65-22 76-55 4-11-2-22-13-25-10-4-22 2-25 12-5 17-21 28-38 28l-194 0c-22 0-40-18-40-40l0-352c0-22 18-40 40-40l194 0c17 0 31 10 37 26 4 10 16 15 26 11 10-4 16-16 12-26z m-192 40c0-11 9-20 20-20 11 0 20 9 20 20 0 11-9 20-20 20-11 0-20-9-20-20z m60 330c0 11-9 20-20 20l-40 0c-11 0-20-9-20-20 0-11 9-20 20-20l40 0c11 0 20 9 20 20z m257-165c0-77-63-140-140-140-77 0-140 63-140 140 0 77 63 140 140 140 77 0 140-63 140-140z m-40 0c0 55-45 100-100 100-55 0-100-45-100-100 0-55 45-100 100-100 55 0 100 45 100 100z m-60 20l-20 0 0 20c0 11-9 20-20 20-11 0-20-9-20-20l0-20-20 0c-11 0-20-9-20-20 0-11 9-20 20-20l20 0 0-20c0-11 9-20 20-20 11 0 20 9 20 20l0 20 20 0c11 0 20 9 20 20 0 11-9 20-20 20z"/>
<glyph glyph-name="mobile-hardware" unicode="&#57403;" d="M142 510c-30-7-56-33-61-63-1-4-1-62-1-191 0-203 0-191 6-206 10-24 33-43 58-48 8-1 216-1 224 0 36 7 64 40 64 76 0 9-1 12-5 17-4 4-8 6-15 6-6 0-10-2-15-7-4-4-4-5-6-17-2-18-15-32-32-35-9-1-197-1-205 0-17 3-31 17-33 34-2 9-2 352 0 360 2 18 16 32 34 34 8 1 194 1 202 0 18-2 32-16 34-34 1-3 1-61 1-134l0-127 3-5c7-13 28-13 35 0l2 5 0 133c0 92 0 135-1 139-5 30-31 56-61 63-10 2-219 2-228 0z m85-72c-2-1-6-4-7-6-3-3-3-5-4-10 0-9 3-15 10-19l4-3 52 0 4 3c7 4 10 10 10 19-1 5-1 7-4 10-1 2-5 5-7 6-4 2-5 2-29 2-24 0-25 0-29-2z m20-328c-3-2-6-4-7-6-3-4-3-5-4-11 0-8 3-14 9-18 10-6 23-3 29 7 2 4 2 6 2 11-1 6-1 7-4 11-4 5-9 8-16 8-4 0-7-1-9-2z"/>
<glyph glyph-name="money" unicode="&#57404;" d="M492 236c-11 0-20-9-20-20 0-22-18-40-40-40l-34 0c-11 0-20-9-20-20 0-11 9-20 20-20l34 0c44 0 80 36 80 80 0 11-9 20-20 20z m-236 197c-56 0-101-48-101-108 0-23 6-43 17-61 6-9 19-12 28-6 9 6 12 19 6 28-7 11-11 24-11 39 0 38 27 68 61 68 34 0 61-30 61-68 0-14-4-27-12-39-6-9-3-22 6-28 4-2 7-3 11-3 7 0 13 3 17 9 12 19 18 40 18 61 0 60-45 108-101 108z m43-215c-11 12-26 18-42 18-16 0-31-6-42-18l-42-41c-8-8-8-20 0-28 8-8 20-8 28 0l35 34 0-163c0-11 9-20 20-20 11 0 20 9 20 20l0 165 37-36c4-4 9-6 14-6 5 0 10 2 14 6 8 8 8 20 0 28z m136 107c0-11-9-20-20-20-11 0-20 9-20 20 0 11 9 20 20 20 11 0 20-9 20-20z m-318 0c0-11-9-20-20-20-11 0-20 9-20 20 0 11 9 20 20 20 11 0 20-9 20-20z m315 187l-352 0c-44 0-80-36-80-80l0-216c0-44 36-80 80-80l36 0c11 0 20 9 20 20 0 11-9 20-20 20l-36 0c-22 0-40 18-40 40l0 216c0 22 18 40 40 40l352 0c22 0 40-18 40-40l0-116c0-11 9-20 20-20 11 0 20 9 20 20l0 116c0 44-36 80-80 80z"/>
<glyph glyph-name="name" unicode="&#57405;" d="M471 187c-17 15-37 28-61 38-10 5-22 0-26-10-5-10 0-22 10-26 20-9 37-20 51-32 17-15 27-37 27-60l0-37c0-11-9-20-20-20l-392 0c-11 0-20 9-20 20l0 37c0 23 10 45 27 60 20 18 79 59 189 59 82 0 148 66 148 148 0 82-66 148-148 148-82 0-148-66-148-148 0-48 23-90 58-117-64-14-104-42-125-60-26-23-41-55-41-90l0-37c0-33 27-60 60-60l392 0c33 0 60 27 60 60l0 37c0 35-15 67-41 90z m-323 177c0 60 48 108 108 108 60 0 108-48 108-108 0-60-48-108-108-108-60 0-108 48-108 108z"/>
<glyph glyph-name="number" unicode="&#57406;" d="M452 0c-33 0-60 27-60 60l0 28c0 33 27 60 60 60 33 0 60-27 60-60l0-28c0-11-9-20-20-20-11 0-20 9-20 20l0 28c0 11-9 20-20 20-11 0-20-9-20-20l0-28c0-11 9-20 20-20 11 0 20-9 20-20 0-11-9-20-20-20z m-151 0c-33 0-60 27-60 60l0 28c0 33 27 60 60 60 33 0 60-27 60-60l0-28c0-11-9-20-20-20-11 0-20 9-20 20l0 28c0 11-9 20-20 20-11 0-20-9-20-20l0-28c0-11 9-20 20-20 11 0 20-9 20-20 0-11-9-20-20-20z m-150 0c-33 0-60 27-60 60l0 28c0 33 27 60 60 60 33 0 60-27 60-60l0-28c0-11-9-20-20-20-11 0-20 9-20 20l0 28c0 11-9 20-20 20-11 0-20-9-20-20l0-28c0-11 9-20 20-20 11 0 20-9 20-20 0-11-9-20-20-20z m-111 3c-11 0-20 9-20 20l0 102c0 11 9 20 20 20 11 0 20-9 20-20l0-102c0-11-9-20-20-20z m241 178c-33 0-60 27-60 60l0 28c0 33 27 60 60 60 33 0 60-27 60-60l0-28c0-11-9-20-20-20-11 0-20 9-20 20l0 28c0 11-9 20-20 20-11 0-20-9-20-20l0-28c0-11 9-20 20-20 11 0 20-9 20-20 0-11-9-20-20-20z m-221 0c-33 0-60 27-60 60l0 28c0 33 27 60 60 60 33 0 60-27 60-60l0-28c0-11-9-20-20-20-11 0-20 9-20 20l0 28c0 11-9 20-20 20-11 0-20-9-20-20l0-28c0-11 9-20 20-20 11 0 20-9 20-20 0-11-9-20-20-20z m411 2c-11 0-20 9-20 20l0 103c0 11 9 20 20 20 11 0 20-9 20-20l0-103c0-11-9-20-20-20z m-80 0c-11 0-20 9-20 20l0 103c0 11 9 20 20 20 11 0 20-9 20-20l0-103c0-11-9-20-20-20z m-220 0c-11 0-20 9-20 20l0 103c0 11 9 20 20 20 11 0 20-9 20-20l0-103c0-11-9-20-20-20z m190 181c-33 0-60 27-60 60l0 28c0 33 27 60 60 60 33 0 60-27 60-60l0-28c0-11-9-20-20-20-11 0-20 9-20 20l0 28c0 11-9 20-20 20-11 0-20-9-20-20l0-28c0-11 9-20 20-20 11 0 20-9 20-20 0-11-9-20-20-20z m-150 0c-33 0-60 27-60 60l0 28c0 33 27 60 60 60 33 0 60-27 60-60l0-28c0-11-9-20-20-20-11 0-20 9-20 20l0 28c0 11-9 20-20 20-11 0-20-9-20-20l0-28c0-11 9-20 20-20 11 0 20-9 20-20 0-11-9-20-20-20z m-111 2c-11 0-20 9-20 20l0 103c0 11 9 20 20 20 11 0 20-9 20-20l0-103c0-11-9-20-20-20z m-80 0c-11 0-20 9-20 20l0 103c0 11 9 20 20 20 11 0 20-9 20-20l0-103c0-11-9-20-20-20z m452 1c-11 0-20 9-20 20l0 102c0 11 9 20 20 20 11 0 20-9 20-20l0-102c0-11-9-20-20-20z"/>
<glyph glyph-name="offer" unicode="&#57407;" d="M232 511c-4-2-16-11-29-21-41-32-78-74-105-116-9-15-26-48-31-63-13-36-19-66-19-101 0-27 3-45 10-68 17-52 56-96 106-121 30-15 58-21 93-21 50 0 92 15 130 45 11 9 14 13 14 22 0 12-8 20-20 20-7 0-10-1-17-8-50-43-125-51-185-19-15 7-28 17-41 30-14 14-23 26-31 43-14 28-20 55-18 89 2 35 11 68 30 105 17 33 41 65 71 96 11 11 34 32 35 32 0 0 1-6 2-13 5-39 18-70 42-96 10-12 14-15 23-15 10 0 13 2 23 16 6 9 18 25 28 37 1 1 2 0 7-10 3-6 10-17 15-25 25-36 32-47 39-60 19-39 24-76 15-113-1-7-2-16-3-19 0-6 0-8 2-12 4-6 10-9 18-9 8 0 14 3 17 9 3 5 7 21 10 39 1 9 1 16 1 32-1 30-4 47-15 73-8 21-16 35-49 82-15 23-20 33-22 52-2 10-2 12-5 15-4 5-9 8-17 8-3 0-8-1-10-2-6-2-36-34-51-53-5-7-5-7-11 3-12 21-17 46-19 82-1 18-1 21-3 25-2 4-6 8-11 10-3 1-15 1-19 0z m-56-212c-11-5-16-15-16-27 0-13 5-22 16-27 5-3 7-3 14-3 7 0 9 0 14 3 11 5 16 14 16 27 0 18-12 30-30 30-7 0-9 0-14-3z m135 0c-3-2-26-29-71-84-37-45-68-83-68-84-1-2-2-6-2-9 0-12 8-20 21-20 5 0 6 0 10 3 3 2 26 29 71 84 37 45 68 82 69 84 0 2 1 6 1 9 0 12-8 20-20 20-5 0-7-1-11-3z m-3-140c-11-5-16-15-16-27 0-13 5-22 16-27 5-3 7-3 14-3 7 0 9 0 14 3 11 5 16 14 16 27 0 18-12 30-30 30-7 0-9 0-14-3z"/>
<glyph glyph-name="offer-2" unicode="&#57408;" d="M182 491c-8-2-18-7-24-12-3-3-10-13-19-25-10-14-14-20-17-21-1-1-12-4-24-6-16-4-23-5-28-8-12-6-23-18-28-31-2-5-2-7-3-38l0-33-13-16c-18-24-21-31-21-48 0-16 3-23 21-47l13-17 0-30c0-27 0-31 2-37 4-12 14-23 28-30 5-2 17-7 30-10 12-4 23-7 24-8 3-2 6-6 20-26 10-15 17-23 26-27 9-5 17-7 29-6 10 0 11 0 33 8 12 5 23 8 25 8 1 0 13-3 25-8 22-8 23-8 33-8 12-1 19 1 29 6 9 5 16 12 27 28 12 19 17 24 19 25 1 1 12 4 24 8 23 7 27 8 35 14 22 17 32 53 18 65-5 5-14 7-21 4-7-3-11-9-12-18-1-8-4-13-8-17-4-4-6-5-26-11-12-3-25-7-28-9-9-4-16-12-30-31-13-20-16-23-21-24-4-1-6-1-30 7-32 12-36 12-69 0-24-8-25-8-30-7-5 1-7 4-21 24-14 20-21 27-30 31-3 2-17 6-29 10-18 5-24 7-27 10l-4 3-1 31c0 29 0 33-2 39-2 6-4 9-27 39-5 5-6 10-5 15 1 2 8 12 15 22 19 26 19 23 19 63 0 25 1 32 2 34 3 6 6 8 29 12 36 8 40 11 61 42 7 10 14 19 15 20 6 4 10 3 35-5l23-8 24 0 23 8c24 8 29 9 34 5 2-1 8-10 15-20 21-30 24-32 59-43 25-7 26-7 30-11l3-3 0-26c0-29 1-40 4-47 2-2 8-12 15-21 7-9 13-17 14-19 3-5 2-11-2-16-5-9-4-20 4-27 7-7 18-7 26 0 4 4 10 14 12 22 2 7 2 21 0 29-2 8-6 15-20 33l-12 16-1 32c0 29 0 32-2 37-4 8-7 13-14 20-9 8-16 11-43 19-12 4-24 7-25 8-1 1-8 10-14 20-8 10-16 20-19 24-10 10-24 16-39 16-9 0-13-1-37-10-11-4-21-7-23-7-2 0-12 3-23 7-11 4-22 8-25 8-7 2-18 2-26 0z m-20-121c-16-5-29-16-34-32-3-8-3-21-1-30 6-18 21-32 41-35 23-3 47 12 54 35 2 8 2 23-1 30-8 24-35 38-59 32z m19-41c3-4 3-10 0-14-5-4-14-2-16 5-1 9 9 15 16 9z m121 40c-2-1-6-4-7-6-2-1-27-48-56-102-53-97-54-100-54-105 0-10 6-18 15-20 8-2 17 1 21 8 1 2 26 48 55 102 52 94 54 99 54 104 0 5 0 7-1 10-6 10-17 14-27 9z m22-137c-15-4-28-15-34-29-3-8-4-23-1-31 5-19 20-33 40-36 23-4 47 11 54 35 3 8 3 22 0 30-9 24-35 38-59 31z m18-41c4-4 4-9 0-13-4-5-14-2-15 5-2 9 9 14 15 8z"/>
<glyph glyph-name="ok" unicode="&#57409;" d="M379 40l-246 0c-44 0-80 36-80 80l0 272c0 44 36 80 80 80l246 0c44 0 80-36 80-80l0-212c0-11-9-20-20-20-11 0-20 9-20 20l0 212c0 22-18 40-40 40l-246 0c-22 0-40-18-40-40l0-272c0-22 18-40 40-40l246 0c22 0 40 18 40 40 0 11 9 20 20 20 11 0 20-9 20-20 0-44-36-80-80-80z m-139 121c14 1 28 8 37 19 0 1 0 1 0 1l99 138c7 9 5 22-4 28-9 7-22 5-28-4l-99-138c-2-3-6-4-8-4-2 0-5 0-8 3l-64 61c-8 8-21 8-28 0-8-8-8-21 0-28l64-62c10-9 22-14 36-14 1 0 2 0 3 0z"/>
<glyph glyph-name="online-l" unicode="&#57410;" d="M497 256c8 0 15 7 15 15l0 210c0 8-7 15-15 15l-241 0c-8 0-15-7-15-15l0-105-196 0c-8 0-15-7-15-15l0-255-15 0c-8 0-15-7-15-15l0-30c0-25 20-45 45-45l422 0c25 0 45 20 45 45l0 30c0 8-7 15-15 15l-15 0 0 150z m-226 210l211 0 0-180-211 0z m211-405c0-8-7-15-15-15l-422 0c-8 0-15 7-15 15l0 15 452 0z m-271 45l-91 0 0 45c0 8 7 15 16 15l60 0c8 0 15-7 15-15z m241 0l-211 0 0 45c0 25-20 45-45 45l-60 0c-25 0-46-20-46-45l0-45-30 0 0 240 181 0 0-75c0-8 7-15 15-15l196 0z m-241 135c0 25-20 45-45 45-25 0-45-20-45-45 0-25 20-45 45-45 25 0 45 20 45 45z m-45-15c-8 0-15 7-15 15 0 8 7 15 15 15 8 0 15-7 15-15 0-8-7-15-15-15z m174 92c4-3 10-3 15 0l75 45c4 3 7 8 7 13 0 5-3 10-7 13l-75 45c-5 3-11 3-15 0-5-3-8-8-8-13l0-90c0-5 3-10 8-13z m22 77l31-19-31-19z m-76-199l121 0c8 0 15 7 15 15 0 8-7 15-15 15l-121 0c-8 0-15-7-15-15 0-8 7-15 15-15z m0-60l121 0c8 0 15 7 15 15 0 8-7 15-15 15l-121 0c-8 0-15-7-15-15 0-8 7-15 15-15z"/>
<glyph glyph-name="pay" unicode="&#57411;" d="M412 212c11 0 20-9 20-20l0-24c0-11-9-20-20-20l-46 0c-11 0-20 9-20 20l0 24c0 11 9 20 20 20z m60 36l0 60-432 0 0-160c0-22 18-40 40-40l352 0c22 0 40 18 40 40 0 11 9 20 20 20 11 0 20-9 20-20 0-44-36-80-80-80l-352 0c-44 0-80 36-80 80l0 216c0 44 36 80 80 80l352 0c44 0 80-36 80-80l0-116c0-11-9-20-20-20-11 0-20 9-20 20z m0 100l0 16c0 22-18 40-40 40l-352 0c-22 0-40-18-40-40l0-16z m-372-80c-11 0-20-9-20-20 0-11 9-20 20-20l165 0c11 0 20 9 20 20 0 11-9 20-20 20z"/>
<glyph glyph-name="phone" unicode="&#57412;" d="M84 510c-17-4-29-10-41-22-19-20-33-48-39-80-2-10-2-15-3-35 0-25 2-35 7-58 17-80 75-167 150-227 14-11 16-12 23-12 12 0 20 8 20 20 0 7-3 12-11 19-36 28-67 61-92 98-28 42-46 82-53 125-3 16-4 50-1 64 4 19 11 35 21 48 10 15 19 20 32 20 14 0 20-4 37-22 22-27 32-48 29-64-2-11-6-16-31-41-12-13-24-26-25-28-3-6-2-12 3-22 18-38 57-86 97-122 27-25 59-48 85-61 10-5 16-6 23-3 2 1 11 9 25 23 31 31 36 34 53 33 7 0 10-1 16-3 20-9 51-35 58-48 2-5 3-7 3-14 0-7-1-10-3-15-9-18-37-34-69-39-12-3-37-3-52-1-20 3-41 9-65 19-10 4-11 4-17 4-5-1-7-1-10-4-10-8-11-23-2-31 5-5 36-16 60-22 24-6 32-7 61-7 24 0 27 0 39 2 29 7 54 19 73 37 30 27 34 69 10 102-10 15-42 40-63 51-15 7-26 10-42 10-12 0-21-2-32-7-13-6-19-11-38-30l-18-17-10 7c-54 34-107 87-140 142l-2 4 16 15c8 9 18 19 21 23 12 16 17 31 17 49 0 28-13 55-44 89-14 16-22 22-36 27-14 5-27 6-40 4z m181-20c-1-1-2-1-4-1-4-1-10-7-12-11-5-11 1-25 12-28 2 0 11-1 19-2 9 0 20-1 25-3 55-11 102-48 126-97 10-22 16-42 17-68 2-18 2-21 6-26 6-7 19-8 26-3 5 3 9 9 10 14 0 5-2 30-4 41-16 92-87 164-177 180-15 3-41 5-44 4z m40-92c-8-2-14-11-14-20 0-4 5-13 9-16 2-1 6-3 10-4 22-6 42-26 49-50 3-11 10-17 21-17 10 0 20 11 20 21 0 3-5 17-9 25-9 22-32 45-54 55-8 3-22 8-26 8-1 0-4-1-6-2z"/>
<glyph glyph-name="pin" unicode="&#57413;" d="M69 0c-3 0-5 0-8 2-7 3-12 10-12 18l0 283c0 56 22 109 62 149 39 39 91 60 146 60 56 0 108-22 146-62 39-39 61-91 60-147 0-37-10-73-29-104-5-10-18-13-27-7-10 5-13 18-7 27 15 25 23 55 23 84 0 45-17 87-48 119-31 32-73 50-118 50 0 0-1 0-1 0-44 0-85-17-117-49-32-32-50-74-50-120l0-235 79 79c6 6 15 8 22 5 21-9 43-14 66-14l0 0c27 0 54 6 77 18 10 5 22 1 27-9 5-10 1-22-9-27-28-14-61-22-95-22 0 0 0 0 0 0-24 0-47 4-69 12l-104-104c-4-4-9-6-14-6z m165 212c14 1 28 8 37 19 0 1 0 1 0 1l81 113c7 9 5 22-4 28-9 7-22 5-28-4l-81-113c-3-3-6-4-8-4-2 0-5 0-8 3 0 0-1 0-1 0l-44 42c-9 7-21 7-29-1-7-9-7-21 1-29l45-41c10-9 22-14 36-14 1 0 2 0 3 0z"/>
<glyph glyph-name="print" unicode="&#57414;" d="M492 200c11 0 20 9 20 20l0 43c0 30-17 56-41 70l0 70c0 11-9 20-20 20l-60 0 0 69c0 11-9 20-20 20l-230 0c-11 0-20-9-20-20l0-69-60 0c-11 0-20-9-20-20l0-70c-24-14-41-40-41-70l0-143c0-44 36-80 80-80l41 0 0-20c0-11 9-20 20-20l230 0c11 0 20 9 20 20l0 20 41 0c44 0 80 36 80 80 0 11-9 20-20 20-11 0-20-9-20-20 0-22-18-40-40-40l-41 0 0 83 21 0c11 0 20 9 20 20 0 11-9 20-20 20l-312 0c-11 0-20-9-20-20 0-11 9-20 20-20l21 0 0-83-41 0c-22 0-40 18-40 40l0 143c0 22 18 40 40 40l352 0c22 0 40-18 40-40l0-43c0-11 9-20 20-20z m-141-37l0-123-190 0 0 123z m80 220l0-40-40 0 0 40z m-80 89l0-129-190 0 0 129z m-230-89l0-40-40 0 0 40z m70 20c0 11 9 20 20 20l90 0c11 0 20-9 20-20 0-11-9-20-20-20l-90 0c-11 0-20 9-20 20z"/>
<glyph glyph-name="printer" unicode="&#57415;" d="M260 40l-109 0 0 123 98 0c11 0 20 9 20 20 0 11-9 20-20 20l-149 0c-11 0-20-9-20-20 0-11 9-20 20-20l11 0 0-83-31 0c-22 0-40 18-40 40l0 143c0 22 18 40 40 40l352 0c22 0 40-18 40-40l0-18c0-11 9-20 20-20 11 0 20 9 20 20l0 18c0 44-36 80-80 80l-31 0 0 149c0 11-9 20-20 20l-250 0c-11 0-20-9-20-20l0-149-31 0c-44 0-80-36-80-80l0-143c0-44 36-80 80-80l31 0 0-20c0-11 9-20 20-20l129 0c11 0 20 9 20 20 0 11-9 20-20 20z m-109 432l210 0 0-129-210 0z m-60-199c11 0 20-9 20-20 0-11-9-20-20-20-11 0-20 9-20 20 0 11 9 20 20 20z m413-177l-19 14c0 1 0 2 0 3 0 2 0 4 0 6l19 15c8 6 10 18 5 27l-11 17c-5 8-15 11-24 8l-21-9c-5 4-10 7-16 9l-4 24c-2 9-10 16-19 16l-19 0c-10 0-19-7-20-17l-4-23c0 0 0 0 0-1-5-2-10-5-15-9 0 0-1 0-1 0l-23 7c-10 3-20-1-24-10l-9-18c-4-8-2-19 7-25l19-13c0 0 0 0 0 0 0-2 0-3 0-4 0-2 0-4 0-6 0 0 0 0 0 0l-19-15c-8-7-10-18-5-26l9-16c5-8 15-12 24-9l22 8c0 0 1 0 1 0 5-3 9-6 14-9 0 0 0 0 1 0l4-24c2-9 10-16 20-16l18 0c9 0 18 7 19 17l4 23c7 3 13 6 19 11l22-7c9-3 20 1 24 10l8 17c4 9 2 19-6 25z m-99-23c-22 0-40 18-40 40 0 22 18 40 40 40 22 0 40-18 40-40 0-22-18-40-40-40z"/>
<glyph glyph-name="ps4" unicode="&#57416;" d="M99 422c0 11 9 20 20 20 11 0 20-9 20-20 0-11-9-20-20-20-11 0-20 9-20 20z m292 20c-11 0-20-9-20-20 0-11 9-20 20-20 11 0 20 9 20 20 0 11-9 20-20 20z m-272-372c11 0 20 9 20 20 0 11-9 20-20 20-11 0-20-9-20-20 0-11 9-20 20-20z m272 0c11 0 20 9 20 20 0 11-9 20-20 20-11 0-20-9-20-20 0-11 9-20 20-20z m-283 186c0 82 66 148 148 148 82 0 148-66 148-148 0-82-66-148-148-148-82 0-148 66-148 148z m40 0c0-60 49-108 108-108 60 0 108 48 108 108 0 60-48 108-108 108-59 0-108-48-108-108z m-84-99c3 0 5 0 8 2 10 4 15 15 11 26-20 46-20 97-1 143 5 11 0 22-11 26-10 5-21 0-26-10-23-57-23-119 1-175 3-7 10-12 18-12z m376 2c3-2 5-2 8-2 8 0 15 5 19 12 23 57 23 118 0 175-5 10-16 15-26 10-11-4-16-15-11-26 19-46 19-97 0-143-5-11 0-22 10-26z m-184 67c17 0 30 13 30 30 0 17-13 30-30 30-17 0-30-13-30-30 0-17 13-30 30-30z m-207 164c11 0 20 9 20 20l0 22c0 22 18 40 40 40l292 0c22 0 40-18 40-40l0-22c0-11 9-20 20-20 11 0 20 9 20 20l0 22c0 44-36 80-80 80l-292 0c-44 0-80-36-80-80l0-22c0-11 9-20 20-20z m412-268c-11 0-20-9-20-20l0-22c0-22-18-40-40-40l-292 0c-22 0-40 18-40 40l0 24c0 11-9 20-20 20-11 0-20-9-20-20l0-24c0-44 36-80 80-80l292 0c44 0 80 36 80 80l0 22c0 11-9 20-20 20z"/>
<glyph glyph-name="rating" unicode="&#57417;" d="M83 201c3-2 7-4 11-4 6 0 13 4 17 9 32 49 86 77 144 77 58 0 112-28 144-76 7-9 19-12 28-6 9 6 12 19 6 28-26 38-63 67-106 82 26 21 42 52 42 87 0 63-51 113-113 113-62 0-113-50-113-113 0-35 16-66 41-87-43-15-81-43-107-82-6-10-3-22 6-28z m173 270c40 0 73-32 73-73 0-40-33-73-73-73-40 0-73 33-73 73 0 41 33 73 73 73z m80-314l-30-21c-4-3-6-9-5-14l12-35c1-2 1-3 1-5 0-9-12-15-21-9l-30 21c-2 2-4 3-7 3-3 0-5-1-7-3l-30-21c-9-6-21 0-21 9 0 2 0 3 1 5l12 35c1 5-1 11-5 14l-30 21c-10 8-5 24 8 24l37 0c5 0 10 3 12 8l11 35c2 6 7 8 12 8 5 0 10-2 12-8l11-35c2-5 7-8 12-8l37 0c13 0 18-16 8-24z m171-70l-30-21c-4-3-6-9-5-14l12-35c1-2 1-3 1-5 0-9-12-15-21-9l-30 21c-2 2-4 3-7 3-3 0-5-1-7-3l-30-21c-9-6-21 0-21 9 0 2 0 3 1 5l12 35c1 5-1 11-5 14l-30 21c-10 8-5 24 8 24l37 0c5 0 10 3 12 8l11 35c2 6 7 8 12 8 5 0 10-2 12-8l11-35c2-5 7-8 12-8l37 0c13 0 18-16 8-24z m-342 0l-30-21c-4-3-6-9-5-14l12-35c1-2 1-3 1-5 0-9-12-15-21-9l-30 21c-2 2-4 3-7 3-3 0-5-1-7-3l-30-21c-9-6-21 0-21 9 0 2 0 3 1 5l12 35c1 5-1 11-5 14l-30 21c-10 8-5 24 8 24l37 0c5 0 10 3 12 8l11 35c2 6 7 8 12 8 5 0 10-2 12-8l11-35c2-5 7-8 12-8l37 0c13 0 18-16 8-24z"/>
<glyph glyph-name="register" unicode="&#57418;" d="M492 367c-11 0-20-9-20-20l0-267c0-17-11-31-25-37 0 5 0 11-1 17-9 43-33 82-67 110-16 13-34 23-53 31 21 19 35 47 35 78 0 57-47 104-104 104-57 0-104-47-104-104 0-31 13-59 35-78-20-7-38-18-55-31-34-28-58-67-67-110-1-6-1-12-1-17-14 6-25 20-25 37l0 352c0 22 18 40 40 40l210 0c11 0 20 9 20 20 0 11-9 20-20 20l-210 0c-44 0-80-36-80-80l0-352c0-44 36-80 80-80l352 0c44 0 80 36 80 80l0 267c0 11-9 20-20 20z m-235-24c35 0 64-29 64-64 0-35-29-64-64-64-35 0-64 29-64 64 0 35 29 64 64 64z m-150-299c-1 1-3 4-2 8 15 70 78 122 151 122 73 0 136-52 151-122 1-4-1-7-2-8-1-2-4-4-8-4l-282 0c-4 0-7 2-8 4z m221 378c-8 8-8 20 0 28 8 8 20 8 28 0l46-45c0-1 1-1 2-1 0 0 1 0 1 1l71 99c6 9 19 11 28 4 9-6 11-19 4-28l-71-99c0-1 0-1 0-1-8-9-19-15-31-16-1 0-2 0-3 0-11 0-21 4-29 12 0 0 0 0 0 0z"/>
<glyph glyph-name="request" unicode="&#57419;" d="M350 512l-145 0c-41 0-74-33-74-74l0-10-25 0c-38 0-70-32-70-71l0-287c0-38 32-70 70-70l205 0c39 0 71 32 71 70l0 14 20 0c41 0 74 33 74 74l0 228c0 70-57 126-126 126z m2-442c0-22-19-40-41-40l-205 0c-22 0-40 18-40 40l0 287c0 23 18 41 40 41l205 0c22 0 41-18 41-41z m94 88c0-24-20-44-44-44l-21 0 0 243c0 39-31 71-70 71l-150 0 0 10c0 24 19 44 44 44l145 0c53 0 96-43 96-96z m-132 217l-210 0c-8 0-15-6-15-15 0-8 7-15 15-15l210 0c8 0 15 7 15 15 0 8-7 15-15 15z m0-48l-210 0c-8 0-15-7-15-15 0-8 7-15 15-15l210 0c8 0 15 7 15 15 0 8-7 15-15 15z m0-245l-210 0c-8 0-15-7-15-15 0-8 7-15 15-15l210 0c8 0 15 7 15 15 0 8-7 15-15 15z m0 176l-48 0c-8 0-15-6-15-15 0-8 7-15 15-15l48 0c8 0 15 7 15 15 0 9-7 15-15 15z m0-48l-48 0c-8 0-15-6-15-15 0-8 7-15 15-15l48 0c8 0 15 7 15 15 0 9-7 15-15 15z m-107 46l-52-73c-1-2-3-2-4-2-1 0-3 0-5 2l-34 32c-4 4-11 4-15 0-4-4-3-11 1-15l34-33c5-4 11-7 18-7 1 0 2 0 2 0 8 0 15 4 20 10 0 0 0 0 0 1l53 73c3 5 2 11-3 15-5 3-11 2-15-3z"/>
<glyph glyph-name="right-arrow" unicode="&#57420;" d="M326 65c-6 0-13 1-19 4-19 8-31 26-31 46l0 43c0 11 9 20 20 20 11 0 20-9 20-20l0-43c0-6 4-8 6-9 2-1 7-2 11 2l133 133c8 8 8 20 0 28l-133 133c-4 4-9 3-11 2-2-1-6-3-6-9l0-121c0-22-18-40-40-40l-256 0c-11 0-20 9-20 20 0 11 9 20 20 20l256 0 0 121c0 20 12 38 31 46 19 8 40 4 55-11l132-132c24-24 24-62 0-85l-132-133c-10-10-23-15-36-15z"/>
<glyph glyph-name="search" unicode="&#57421;" d="M272 510c-93-13-165-86-178-179-2-14-2-44 0-58 5-37 20-72 43-102l3-3-68-67c-37-37-69-69-70-71-3-5-3-15 1-21 3-6 9-9 17-9 4 0 7 1 9 2 2 0 34 32 71 69 38 37 69 67 69 67 1 0 2-1 3-2 3-3 26-18 37-23 31-15 59-21 93-21 34 0 62 6 92 20 17 9 21 13 21 24 0 10-6 18-15 20-6 2-10 1-19-4-16-8-39-16-57-18-11-2-33-2-44 0-71 9-129 64-144 134-17 83 31 167 112 194 35 12 73 12 108 0 64-21 110-81 115-148 2-31-4-60-18-89-6-12-6-12-6-18 1-12 8-18 19-19 8 0 13 2 17 6 7 10 19 38 24 60 5 22 7 55 4 77-14 93-86 166-180 179-13 2-46 2-59 0z"/>
<glyph glyph-name="search1" unicode="&#57422;" d="M322 512c-105 0-190-85-190-190 0-45 16-87 42-119l-33-34c-21 3-44-10-53-15-27-15-55-38-69-51l-1 0 0-1c-12-11-18-26-18-42 0-16 6-31 18-42 11-12 26-18 42-18 16 0 31 6 42 18l1 1c16 17 37 43 51 67 6 9 21 35 16 56l33 32c32-26 74-42 119-42 28 0 54 6 79 17 10 5 15 17 10 27-4 10-16 14-26 10-20-9-41-14-63-14-83 0-150 67-150 150 0 83 67 150 150 150 83 0 150-67 150-150 0-26-7-52-20-74-5-10-2-22 8-27 9-6 22-3 27 7 16 28 25 61 25 94 0 105-85 190-190 190z m-248-467c-4-3-9-5-14-5-5 0-10 2-14 6-4 4-6 9-6 14 0 5 2 10 5 14 20 16 39 31 55 41 16 9 26 13 31 14-3-11-17-37-57-84z"/>
<glyph glyph-name="search2" unicode="&#57423;" d="M512 302c0-36-9-72-27-104-6-10-18-13-28-7-9 5-13 17-7 27 14 25 22 54 22 84 0 94-76 170-170 170-94 0-170-76-170-170 0-94 76-170 170-170 29 0 58 8 83 22 10 5 22 2 27-8 6-10 2-22-7-27-31-18-67-27-103-27-50 0-97 18-133 48l-135-134c-4-4-9-6-14-6-5 0-10 2-14 6-8 8-8 20 0 28l135 134c-31 36-49 83-49 134 0 116 94 210 210 210 116 0 210-94 210-210z m-135 75l-83-116c-3-3-6-4-8-4-2 0-5 0-8 3 0 0-1 0-1 0l-53 49c-8 7-20 7-28-2-7-8-7-20 2-28l52-48c10-9 22-14 36-14 1 0 2 0 3 0 14 1 28 8 37 19 0 1 0 1 0 1l83 117c7 9 5 22-4 28-9 7-22 5-28-5z"/>
<glyph glyph-name="security" unicode="&#57424;" d="M249 510c-6-2-205-92-208-94-2-1-4-4-5-6-2-4-2-6-2-94 0-75 0-92 1-102 11-83 64-159 135-193 17-8 31-13 49-17 11-2 14-2 36-2 25 0 31 0 50 5 22 6 42 15 62 28 8 5 11 8 13 12 8 13-1 30-17 30-6 0-8-1-19-8-34-24-78-33-118-25-70 15-132 82-148 160-4 20-5 35-4 112l0 71 90 41 91 40 91-40 92-41 0-71c0-44 0-76-1-85-2-29-8-53-23-81-4-10-9-20-9-21-1-4 1-10 4-15 6-9 20-11 29-3 10 8 28 50 35 80 5 24 5 28 5 125 0 88 0 90-2 94-1 2-3 5-5 6-2 1-50 23-107 48-104 47-108 48-115 46z m102-161c-4-2-10-10-56-74-54-75-53-74-60-72-2 0-12 9-36 33-18 17-35 33-37 34-11 6-25 0-28-12-2-6-2-10 1-15 1-2 18-19 37-38 40-39 41-40 62-43 10-2 29 5 38 13 5 4 103 141 106 147 3 5 2 14 0 18-5 10-17 14-27 9z"/>
<glyph glyph-name="select" unicode="&#57425;" d="M456 188l-134 112c-11 9-26 11-39 5-13-7-21-19-21-33l0-176c0-17 10-30 25-36 4-1 9-2 13-2 11 0 22 5 29 14l26 33 48-94c4-7 11-11 18-11 3 0 6 1 9 2 10 5 14 17 9 27l-47 92 40 0c16 0 30 10 36 25 5 15 1 32-12 42z m-97-27c0 0-1 0-1 0 0 0-1 0-1 0 0 0-1 0-1 0 0 0 0 0-1 0 0 0-1-1-1-1 0 0 0 0 0 0-1 0-1 0-2 0 0 0 0 0 0 0-1-1-1-1-2-1 0 0 0 0 0 0 0 0 0 0 0 0-1-1-1-1-2-1 0 0 0 0 0 0 0-1-1-1-1-1 0 0-1 0-1-1 0 0 0 0-1-1 0 0 0 0 0 0 0 0-1-1-1-1 0 0 0 0 0 0 0 0 0 0 0 0l-42-52 0 162 124-103z m-49 331c0 11 9 20 20 20 11 0 20-9 20-20 0-11-9-20-20-20-11 0-20 9-20 20z m74 0c0 11 9 20 20 20 11 0 20-9 20-20 0-11-9-20-20-20-11 0-20 9-20 20z m-304-54c0-11-9-20-20-20-11 0-20 9-20 20 0 11 9 20 20 20 11 0 20-9 20-20z m176 34c-11 0-20 9-20 20 0 11 9 20 20 20 11 0 20-9 20-20 0-11-9-20-20-20z m-54 20c0-11-9-20-20-20-11 0-20 9-20 20 0 11 9 20 20 20 11 0 20-9 20-20z m-122-199c0-11-9-20-20-20-11 0-20 9-20 20 0 11 9 20 20 20 11 0 20-9 20-20z m0 74c0-11-9-20-20-20-11 0-20 9-20 20 0 11 9 20 20 20 11 0 20-9 20-20z m0-148c0-11-9-20-20-20-11 0-20 9-20 20 0 11 9 20 20 20 11 0 20-9 20-20z m0-74c0-11-9-20-20-20-11 0-20 9-20 20 0 11 9 20 20 20 11 0 20-9 20-20z m48 347c0-11-9-20-20-20-11 0-20 9-20 20 0 11 9 20 20 20 11 0 20-9 20-20z m304-54c0 11 9 20 20 20 11 0 20-9 20-20 0-11-9-20-20-20-11 0-20 9-20 20z m-230-347c0-11-9-20-20-20-11 0-20 9-20 20 0 11 9 20 20 20 11 0 20-9 20-20z m-74 0c0-11-9-20-20-20-11 0-20 9-20 20 0 11 9 20 20 20 11 0 20-9 20-20z m344 202c0-11-9-20-20-20-11 0-20 9-20 20 0 11 9 20 20 20 11 0 20-9 20-20z m0 74c0-11-9-20-20-20-11 0-20 9-20 20 0 11 9 20 20 20 11 0 20-9 20-20z"/>
<glyph glyph-name="services" unicode="&#57426;" d="M245 509c-6-3-9-9-9-17l0-6-222 0-5-3c-6-3-9-9-9-17 0-8 3-14 9-18 4-2 6-2 13-2l8 0 0-144c0-163-1-150 9-169 7-15 19-27 35-35 17-8 15-8 93-8l69 0 0-50-90 0-5-3c-6-3-9-9-9-17 0-8 3-14 9-18l5-2 221 0 5 2c6 4 9 10 9 18 0 8-3 14-9 17l-5 3-91 0 0 50 69 0c78 0 76 0 94 8 26 14 43 41 43 69 0 8 0 10-2 14-8 12-28 12-35 0-2-2-3-6-4-13 0-5-2-11-3-14-6-12-17-21-31-23-9-1-293-1-302 0-18 3-31 16-34 34-1 5-1 58-1 144l0 137 372 0 0-182 3-5c3-6 9-9 17-9 8 0 14 3 18 9l2 5 0 182 8 0c7 0 9 0 13 2 6 4 9 10 9 18 0 8-3 14-9 17l-5 3-222 0 0 6c0 12-8 20-20 20-5 0-7-1-11-3z m-130-98c-2-1-5-4-6-6l-3-5 0-81 3-5c1-2 4-5 6-7l5-2 104 0 5 2c2 2 5 5 7 7l2 5 0 81-2 5c-2 2-5 5-7 6l-5 3-104 0z m83-52l0-14-52 0 0 29 52 0z m85 52c-2-1-5-4-6-6l-3-5 0-81 3-5c1-2 4-5 6-7l5-2 104 0 5 2c2 2 5 5 7 7l2 5 0 81-2 5c-2 2-5 5-7 6l-5 3-104 0z m83-52l0-14-52 0 0 29 52 0z m-251-91c-2-1-5-4-6-6l-3-5 0-81 3-5c1-2 4-5 6-7l5-2 104 0 5 2c2 2 5 5 7 7l2 5 0 81-2 5c-2 2-5 5-7 6l-5 3-104 0z m83-52l0-14-52 0 0 29 52 0z m85 52c-2-1-5-4-6-6l-3-5 0-81 3-5c1-2 4-5 6-7l5-2 104 0 5 2c2 2 5 5 7 7l2 5 0 81-2 5c-2 2-5 5-7 6l-5 3-104 0z m83-52l0-14-52 0 0 29 52 0z"/>
<glyph glyph-name="share" unicode="&#57427;" d="M426 172c-27 0-50-12-66-31l-67 33c-10 5-22 1-27-9-5-10-1-22 9-27l67-33c-1-6-2-12-2-19 0-47 39-86 86-86 47 0 86 39 86 86 0 47-39 86-86 86z m0-132c-25 0-46 21-46 46 0 6 1 12 4 18 0 0 1 1 1 2 0 1 1 2 1 3 8 14 23 23 40 23 25 0 46-21 46-46 0-25-21-46-46-46z m0 472c-47 0-86-39-86-86 0-7 1-13 2-19l-190-96c-16 19-40 31-66 31-47 0-86-39-86-86 0-47 39-86 86-86 26 0 50 12 66 30l32-16c3-1 6-2 9-2 7 0 14 4 18 11 5 10 1 22-9 27l-32 16c1 7 2 13 2 20 0 7-1 13-2 20l190 95c16-19 40-31 66-31 47 0 86 39 86 86 0 47-39 86-86 86z m-340-302c-25 0-46 21-46 46 0 25 21 46 46 46 25 0 46-21 46-46 0-25-21-46-46-46z m340 170c-25 0-46 21-46 46 0 25 21 46 46 46 25 0 46-21 46-46 0-25-21-46-46-46z"/>
<glyph glyph-name="shop" unicode="&#57428;" d="M44 510c-3 0-8-3-12-4-9-5-21-17-26-26-7-14-6 2-6-215 0-193 0-197 2-205 3-10 10-24 16-31 11-13 27-23 42-27 8-2 12-2 196-2 184 0 188 0 196 2 34 9 60 41 60 75 0 8 0 10-2 14-8 12-28 12-35 0-2-2-3-6-4-13-2-21-14-34-34-37-9-1-353-1-362 0-18 3-31 16-34 34-1 5-1 43-1 98l0 91 8-3c6-2 11-2 19-2 16 0 29 4 41 13l6 5 6-5c12-9 25-13 41-13 16 0 29 4 41 13 3 3 6 5 7 5 0 0 2-2 4-4 6-4 19-11 27-13 7-2 25-2 33 0 7 2 20 9 26 13 2 2 4 4 4 4 1 0 4-2 7-5 12-9 25-13 41-13 16 0 29 4 41 13l6 5 6-5c13-9 25-13 41-13 8 0 13 0 19 2l8 3 0-90 3-5c3-6 9-9 17-9 8 0 14 3 18 9l2 5 0 144c0 158 0 148-6 162-5 9-17 21-26 26-14 7 3 6-224 6-176 0-207 0-212-2z m268-43c-2-9-1-25 1-34l1-2-274 0 0 13c1 13 2 17 6 21 2 3 7 5 11 6 2 0 61 1 130 1l127 0z m68 2c7-3 10-9 10-17 0-11-8-19-19-19-11 0-19 8-19 19 0 11 8 19 19 19 3 0 7-1 9-2z m80 0c7-3 10-9 10-17 0-11-8-19-19-19-11 0-19 8-19 19 0 11 8 19 19 19 3 0 7-1 9-2z m12-113l0-36-3-5c-5-10-13-15-24-15-10 0-19 5-23 14-2 5-3 8-4 15 0 11-3 17-9 20-6 4-16 4-22 0-6-3-9-9-9-20-1-14-5-22-15-27-8-3-16-3-23 0-11 5-15 13-16 28 0 11-3 17-9 20-6 4-16 4-22 0-6-3-9-9-9-20-1-11-3-17-9-22-10-11-28-11-38 0-6 5-8 11-9 22 0 10-3 16-9 19-6 4-16 4-22 0-6-3-9-9-9-20-1-11-4-18-9-23-9-7-20-8-29-4-10 5-15 13-16 27 0 11-3 17-9 20-6 4-16 4-22 0-6-3-9-9-9-20-1-14-5-22-15-27-8-3-16-3-23 0-7 3-10 7-13 14-2 4-2 6-3 40l0 35 432 0z"/>
<glyph glyph-name="shoping-basket" unicode="&#57429;" d="M246 510c-5-2-8-5-10-10-2-3-2-8-2-80l0-76-5-2c-13-6-24-17-29-29l-2-6-92 0c-100 0-95 0-101-5-4-4-5-7-5-15 0-5 7-53 16-117 14-96 16-110 19-116 8-20 26-39 48-47 17-7 3-7 170-7 135 0 151 0 159 2 33 6 61 33 68 62 1 8 0 15-4 20-9 9-24 9-32 0-1-2-3-7-4-10-4-15-15-25-32-31l-7-3-145 0c-137 0-145 1-150 2-15 5-25 13-31 23-3 6-3 8-17 102-8 52-14 96-14 98l-1 2 77 0 78 0 3-8c7-13 19-24 34-29 5-2 8-3 20-3 12 0 14 1 19 3 16 5 28 16 34 29l4 8 78 0 78 0 0-2c-1-2-4-26-8-55-6-37-8-53-7-55 2-11 9-16 20-16 10 0 18 6 20 16 0 2 5 33 10 69 8 57 9 65 8 69-1 5-5 9-10 12-4 2-7 2-97 2l-93 0 0 2c-1 2 9 12 59 63 33 34 61 62 62 64 5 9 1 22-9 27-5 2-14 3-18 0-2 0-31-28-64-61l-60-61-3 2-3 1 0 153-2 4c-1 2-4 6-6 7-4 3-5 3-11 4-5 0-8 0-10-2z m16-205c1 0 3-2 5-3 4-4 7-10 7-15 0-8-7-17-15-19-3 0-4 0-4 0 0 0-2 0-5 0-7 2-15 11-15 19 0 5 3 11 7 14 4 4 11 6 16 5 2-1 4-1 4-1z m-158-106c-8-4-12-12-11-21 1-6 4-10 8-13l4-4 300 0 4 4c6 4 8 8 8 16 0 8-2 12-8 16l-4 3-149 1c-145 0-149 0-152-2z m13-80c-7-3-12-12-11-21 1-6 4-10 8-13l4-4 276 0 4 4c6 4 8 8 8 16 0 8-2 12-8 16l-4 3-137 1c-124 0-137 0-140-2z"/>
<glyph glyph-name="smartphone" unicode="&#57430;" d="M142 510c-30-7-56-33-61-63-1-4-1-62-1-191 0-203 0-191 6-206 10-24 33-43 58-48 8-1 216-1 224 0 36 7 64 40 64 76 0 9-1 12-5 17-4 4-8 6-15 6-6 0-10-2-15-7-4-4-4-5-6-17-2-18-15-32-32-35-9-1-197-1-205 0-17 3-31 17-33 34-2 9-2 352 0 360 2 18 16 32 34 34 8 1 194 1 202 0 18-2 32-16 34-34 1-3 1-61 1-134l0-127 3-5c7-13 28-13 35 0l2 5 0 133c0 92 0 135-1 139-5 30-31 56-61 63-10 2-219 2-228 0z m85-72c-2-1-6-4-7-6-3-3-3-5-4-10 0-9 3-15 10-19l4-3 52 0 4 3c7 4 10 10 10 19-1 5-1 7-4 10-1 2-5 5-7 6-4 2-5 2-29 2-24 0-25 0-29-2z m20-328c-3-2-6-4-7-6-3-4-3-5-4-11 0-8 3-14 9-18 10-6 23-3 29 7 2 4 2 6 2 11-1 6-1 7-4 11-4 5-9 8-16 8-4 0-7-1-9-2z"/>
<glyph glyph-name="smartphone-1" unicode="&#57431;" d="M413 161c11 0 20 9 20 20l0 251c0 44-36 80-80 80l-194 0c-44 0-80-36-80-80l0-352c0-44 36-80 80-80l194 0c44 0 80 36 80 80 0 11-9 20-20 20-11 0-20-9-20-20 0-22-18-40-40-40l-194 0c-22 0-40 18-40 40l0 61 69 85 26-29c4-4 10-6 15-6 6 0 12 3 15 7l91 110 58-70 0-57c0-11 9-20 20-20z m-63 191c-4 4-10 7-15 7-6 0-12-3-16-7l-91-111-26 29c-4 5-9 7-15 7-6 0-12-3-15-8l-53-65 0 228c0 22 18 40 40 40l194 0c22 0 40-18 40-40l0-131z m-131 20c0-11-9-20-20-20-11 0-20 9-20 20 0 11 9 20 20 20 11 0 20-9 20-20z m60-261c11 0 20-9 20-20 0-11-9-20-20-20l-40 0c-11 0-20 9-20 20 0 11 9 20 20 20z"/>
<glyph glyph-name="smoke-alarm" unicode="&#57432;" d="M59 472l394 0c10 0 19-9 19-19 0-11 9-20 20-20 11 0 20 9 20 20 0 33-26 59-59 59l-394 0c-33 0-59-26-59-59l0-70c0-12 4-25 11-35l58-95 0-68c0-11 9-20 20-20l334 0c11 0 20 9 20 20l0 69 58 95c6 9 3 22-6 27-10 6-22 3-28-6l-54-88-43 0 15 94 27 0c11 0 20 9 20 20 0 11-9 20-20 20l-372 0 0 37c0 10 9 19 19 19z m-14-102c0 0-1 1-1 1-1 2-2 3-3 5l86 0 15-94-44 0z m138-88l-16 94 71 0 0-94z m220-77l-294 0 0 37 294 0z m-74 77l-51 0 0 94 67 0z m-148-177c0-31-17-50-30-63-9-10-14-16-14-22 0-11-9-20-20-20-11 0-20 9-20 20 0 22 14 37 25 49 12 13 19 21 19 36 0 11 9 20 20 20 11 0 20-9 20-20z m108 0c0-31-17-50-30-63-9-10-14-16-14-22 0-11-9-20-20-20-11 0-20 9-20 20 0 22 14 37 25 49 12 13 19 21 19 36 0 11 9 20 20 20 11 0 20-9 20-20z m107 0c0-31-18-50-30-63-9-10-14-16-14-22 0-11-9-20-20-20-11 0-20 9-20 20 0 22 14 37 25 49 11 13 19 21 19 36 0 11 9 20 20 20 11 0 20-9 20-20z"/>
<glyph glyph-name="star" unicode="&#57433;" d="M233 501c-18-6-39-23-47-38-2-3-9-24-16-46l-13-41-51-1c-47-1-52-2-63-7-15-7-32-25-38-41-7-19-7-47 1-64 8-17 15-24 55-53l34-24-14-42c-14-41-14-43-13-61 2-42 31-71 72-73 27-2 37 2 78 32 20 14 37 25 38 25 1 0 18-11 38-25 41-30 51-34 78-32 41 2 70 31 72 73 1 18 1 20-13 61l-14 42 34 24c40 29 47 36 55 53 8 17 8 45 1 64-6 16-23 34-38 41-11 5-16 6-63 7l-51 1-13 41c-15 46-16 48-29 62-15 16-29 22-54 23-11 0-23 0-26-1z m31-154c10-33 22-49 46-59 8-4 16-5 42-6l33-2-15-10c-36-25-49-43-50-73-1-14 0-20 6-39 4-12 7-23 7-24 0-1-7 3-15 9-8 6-21 14-29 18-21 10-45 10-66 0-8-4-21-12-29-18-8-6-15-10-15-9 0 1 3 12 7 24 6 19 7 25 6 39-1 30-14 48-50 73l-15 10 33 2c26 1 34 2 42 6 24 10 36 26 46 59 4 11 7 21 8 21 1 0 4-10 8-21z"/>
<glyph glyph-name="student" unicode="&#57434;" d="M492 180c-11 0-20-9-20-20 0-22-18-40-40-40l-352 0c-22 0-40 18-40 40l0 200c0 6 1 11 4 17 4 10 0 21-10 26-10 5-22 0-27-10-5-10-7-21-7-33l0-200c0-44 36-80 80-80l156 0 0-40-70 0c-11 0-20-9-20-20 0-11 9-20 20-20l180 0c11 0 20 9 20 20 0 11-9 20-20 20l-70 0 0 40 156 0c44 0 80 36 80 80 0 11-9 20-20 20z m13 213c-5 10-17 15-27 10-10-5-14-16-10-26 3-6 4-11 4-17l0-100c0-11 9-20 20-20 11 0 20 9 20 20l0 100c0 12-2 23-7 33z m-412-70c11 0 20 9 20 20l0 46 33-12c-4-11-12-42-12-103 0-10 8-19 18-20 1 0 46-5 93-32 4-3 8-5 13-5 0 0 0 0 0 0 0 0 0 0 0 0 5 0 9 2 13 5 46 27 93 32 93 32 10 1 18 10 18 20 0 61-8 92-12 103l47 17c16 6 26 19 26 34 0 15-10 28-26 33l-122 45c-23 8-50 8-73 0l-123-45c-12-4-21-13-24-23-1-3-2-5-2-8l0-87c0-11 9-20 20-20z m165-63c-33 18-65 27-84 31 1 44 7 66 9 73l39-14c11-4 24-6 36-6 13 0 26 2 37 6l38 14c2-7 8-29 9-73-19-4-51-13-84-31z m2 190l-75 0 50 18c15 5 32 5 47 0l111-40-111-40c-15-5-32-5-47 0l-62 22 87 0c11 0 20 9 20 20 0 11-9 20-20 20z"/>
<glyph glyph-name="subject" unicode="&#57435;" d="M116 510c-30-7-55-33-61-63-1-4-1-62-1-191 0-203 0-191 6-206 10-24 33-43 58-48 8-1 268-1 276 0 36 7 64 40 64 76 0 9-1 12-5 17-4 4-9 6-15 6-7 0-11-2-15-7-4-4-4-5-6-17-2-18-16-32-34-35-8-1-246-1-254 0-18 3-32 17-34 34-2 9-1 352 0 360 2 18 16 32 34 34 8 1 246 1 254 0 18-2 32-16 34-34 1-3 1-60 1-133 0-106 0-128 2-131 1-4 7-9 10-10 4-2 13-2 16 0 4 2 10 7 11 11 1 4 1 266 0 274-6 30-31 56-62 63-9 2-270 2-279 0z m119-75c-4-2-9-7-33-36l-17-21-10 10c-6 5-11 10-13 11-4 2-12 2-16 0-4-1-9-6-11-10-2-4-2-12 0-17 2-5 28-31 34-34 14-7 30-4 41 7 9 9 50 60 52 63 2 6 1 15-2 20-4 5-8 8-16 8-4 0-8 0-9-1z m56-54c-3-1-9-7-10-11-2-4-1-12 0-16 2-4 9-10 13-11 2 0 19 0 38 0l34 0 4 3c12 8 12 25 0 34l-4 2-36 0c-28 1-36 0-39-1z m-52-67c-3-1-6-2-7-3-2-1-13-14-25-29l-22-27-10 10c-6 6-12 11-13 12-4 1-12 1-16 0-4-1-9-7-11-11-2-4-2-12 0-16 1-2 8-10 16-18 17-17 20-19 32-19 11-1 18 1 26 9 7 7 51 60 53 64 0 2 1 5 1 8 0 13-12 23-24 20z m52-55c-3-2-9-7-10-11-2-4-1-12 0-16 2-4 9-10 13-11 2 0 19-1 38 0l34 0 4 2c12 9 12 26 0 34l-4 3-36 0c-28 0-36 0-39-1z m-52-66c-3 0-6-1-7-3-2-1-13-14-25-28l-22-27-10 10c-6 6-12 11-13 11-4 2-12 2-16 1-4-2-9-7-11-11-2-4-2-12 0-17 1-1 8-10 16-17 17-17 20-19 32-20 11 0 18 2 26 9 7 7 51 60 53 64 0 2 1 6 1 9 0 13-12 22-24 19z m52-55c-3-1-9-7-10-10-2-4-1-13 0-16 2-5 9-11 13-12 2 0 19 0 38 0l34 0 4 3c12 8 12 26 0 34l-4 2-36 0c-28 1-36 0-39-1z"/>
<glyph glyph-name="support" unicode="&#57436;" d="M238 511c-1 0-5 0-9-1-11-2-30-8-42-15-38-20-66-56-76-99-3-12-4-41-2-55 4-20 11-39 21-55 6-10 17-24 23-28 3-2 4-3 12-3 7 0 8 1 12 4 8 6 10 16 6 25-1 2-5 7-8 11-38 43-34 107 7 147 21 19 46 29 74 29 51 0 96-37 106-87 2-11 2-29 0-40-7-35-31-64-64-79l-7-3-6 6c-3 3-8 7-11 9-6 2-7 2-18 2-11 0-12 0-17-2-8-4-16-12-20-20-2-5-2-6-2-17 0-11 0-12 2-18 4-7 12-15 19-19 8-3 22-4 30-2 7 2 15 8 20 14 3 4 4 5 15 8 50 17 87 58 99 111 2 12 2 48 0 60-13 58-57 102-115 115-7 2-45 4-49 2z m-99-271c-24-8-49-18-68-30-38-23-58-49-68-83-2-9-2-11-3-43 0-37 0-39 6-52 5-9 17-21 26-26 14-7-3-6 224-6 227 0 210-1 224 6 9 5 21 17 26 26 6 13 6 15 6 52-1 32-1 34-3 43-6 22-16 39-32 55-15 15-37 30-60 41-9 4-10 4-16 4-13-1-20-9-19-21 1-11 3-13 19-21 43-22 62-41 69-72 1-6 2-12 2-33 0-22-1-25-2-28-3-5-5-7-9-9l-4-3-401 0-4 3c-5 2-7 4-10 9-1 3-1 6-1 28 0 21 0 27 1 33 3 10 6 19 12 27 15 24 56 49 103 62 5 2 11 4 13 5 12 8 11 27-1 34-6 4-14 4-30-1z"/>
<glyph glyph-name="support-1" unicode="&#57437;" d="M150 261c-27 28-42 64-42 103 0 82 66 148 148 148 82 0 148-66 148-148 0-70-48-128-113-144-7-12-20-20-35-20-22 0-40 18-40 40 0 22 18 40 40 40 14 0 27-7 34-19 43 15 74 55 74 103 0 60-48 108-108 108-60 0-108-48-108-108 0-28 11-55 31-75 8-8 7-21-1-28-7-8-20-8-28 0z m321-74c-17 15-37 28-61 38-10 5-22 0-26-10-5-10 0-22 10-26 20-9 37-20 51-32 17-15 27-37 27-60l0-37c0-11-9-20-20-20l-392 0c-11 0-20 9-20 20l0 37c0 23 10 45 27 60 17 15 47 35 96 48 11 2 17 13 14 24-2 11-13 17-24 14-57-14-92-38-112-56-26-23-41-55-41-90l0-37c0-33 27-60 60-60l392 0c33 0 60 27 60 60l0 37c0 35-15 67-41 90z"/>
<glyph glyph-name="tablo" unicode="&#57438;" d="M433 296c0 11-9 20-20 20l-116 0c-11 0-20-9-20-20 0-11 9-20 20-20l116 0c11 0 20 9 20 20z m-136-60c-11 0-20-9-20-20 0-11 9-20 20-20l76 0c11 0 20 9 20 20 0 11-9 20-20 20z m195 40c11 0 20 9 20 20l0 100c0 44-36 80-80 80l-352 0c-44 0-80-36-80-80l0-200c0-44 36-80 80-80l156 0 0-40-70 0c-11 0-20-9-20-20 0-11 9-20 20-20l180 0c11 0 20 9 20 20 0 11-9 20-20 20l-70 0 0 40 156 0c44 0 80 36 80 80 0 11-9 20-20 20-11 0-20-9-20-20 0-22-18-40-40-40l-352 0c-22 0-40 18-40 40l0 200c0 22 18 40 40 40l352 0c22 0 40-18 40-40l0-100c0-11 9-20 20-20z m-277 40l-116 0c-11 0-20-9-20-20 0-11 9-20 20-20l116 0c11 0 20 9 20 20 0 11-9 20-20 20z m198 80l-116 0c-11 0-20-9-20-20 0-11 9-20 20-20l116 0c11 0 20 9 20 20 0 11-9 20-20 20z m-198 0l-116 0c-11 0-20-9-20-20 0-11 9-20 20-20l116 0c11 0 20 9 20 20 0 11-9 20-20 20z m0-160l-116 0c-11 0-20-9-20-20 0-11 9-20 20-20l116 0c11 0 20 9 20 20 0 11-9 20-20 20z"/>
<glyph glyph-name="teacher" unicode="&#57439;" d="M160 235l0-215c0-11-9-20-20-20-11 0-20 9-20 20l0 215c0 11 9 20 20 20 11 0 20-9 20-20z m55 197l177 0c22 0 40-18 40-40l0-90c0-11 9-20 20-20 11 0 20 9 20 20l0 90c0 44-36 80-80 80l-177 0c-11 0-20-9-20-20 0-11 9-20 20-20z m-155-248c-11 0-20 9-20 20l0 109c0 11 9 20 20 20l79 0c6 0 12-3 16-8l55-111c5-10 17-14 27-9 10 5 14 17 9 27l-56 112c-1 1-1 2-1 2-11 16-28 26-47 27-1 0-82 0-82 0-33 0-60-27-60-60l0-109c0-26 17-48 40-57l0-127c0-11 9-20 20-20 11 0 20 9 20 20l0 144c0 11-9 20-20 20z m-20 268c0 33 27 60 60 60 33 0 60-27 60-60 0-33-27-60-60-60-33 0-60 27-60 60z m40 0c0-11 9-20 20-20 11 0 20 9 20 20 0 11-9 20-20 20-11 0-20-9-20-20z m412-280l-20 0 0 30c0 11-9 20-20 20-11 0-20-9-20-20l0-30-212 0c-11 0-20-9-20-20 0-11 9-20 20-20l272 0c11 0 20 9 20 20 0 11-9 20-20 20z"/>
<glyph glyph-name="tick" unicode="&#57440;" d="M190 49c-20 0-40 8-55 23l-129 127c-8 7-8 20 0 28 7 8 20 8 28 0l129-127c8-8 19-12 31-11 11 1 21 7 28 16l254 350c6 9 19 11 28 4 9-6 11-19 4-28l-254-349c-13-19-34-31-57-33-2 0-4 0-7 0z"/>
<glyph glyph-name="time" unicode="&#57441;" d="M248 510c-3-1-9-6-10-9-1-2-2-9-2-16l-1-14-10-2c-93-11-172-80-196-170-7-25-8-33-8-63 0-24 1-28 3-39 8-44 25-80 52-112 30-36 73-64 117-76 25-6 33-7 62-7 28 0 32 0 53 5 24 5 45 14 67 26 13 8 22 15 25 19 3 4 4 13 2 18-1 5-9 12-13 13-9 1-13 0-25-8-25-17-52-27-81-31-14-2-41-2-55 0-91 13-160 88-166 180-5 77 36 150 104 185 29 15 57 21 90 21 18 0 33-1 49-6 67-17 121-71 139-138 4-17 6-31 6-50 0-32-6-58-21-88-5-12-6-16-3-23 3-8 10-13 20-12 9 1 13 4 19 14 9 19 19 46 23 70 2 12 2 16 2 40 0 29 0 35-7 60-23 90-103 161-196 172l-11 2 0 14c-1 7-1 14-2 16-2 3-8 8-11 9-3 1-12 1-15 0z m-148-14c-2-1-17-12-33-26-21-17-29-25-31-28-4-8-2-18 4-24 6-6 16-7 23-4 5 3 59 49 62 53 11 16-7 37-25 29z m296 0c-12-5-16-19-10-29 3-4 58-50 63-53 7-3 17-2 23 4 6 6 8 18 3 26-4 4-58 50-63 52-6 3-11 3-16 0z m-64-137c-4-2-6-4-40-45l-30-37-8-1c-16-1-28-9-34-23-3-6-4-7-4-17 0-9 1-11 4-17 4-8 10-15 19-19 6-3 7-3 17-3 9 0 11 0 16 3 8 3 13 7 17 14 5 8 7 14 6 24 0 5 0 10-1 11 0 1 6 10 32 41 17 22 32 41 33 43 3 6 1 16-4 22-5 5-16 7-23 4z"/>
<glyph glyph-name="user" unicode="&#57442;" d="M471 187c-17 15-37 28-61 38-10 5-22 0-26-10-5-10 0-22 10-26 20-9 37-20 51-32 17-15 27-37 27-60l0-37c0-11-9-20-20-20l-392 0c-11 0-20 9-20 20l0 37c0 23 10 45 27 60 20 18 79 59 189 59 82 0 148 66 148 148 0 82-66 148-148 148-82 0-148-66-148-148 0-48 23-90 58-117-64-14-104-42-125-60-26-23-41-55-41-90l0-37c0-33 27-60 60-60l392 0c33 0 60 27 60 60l0 37c0 35-15 67-41 90z m-323 177c0 60 48 108 108 108 60 0 108-48 108-108 0-60-48-108-108-108-60 0-108 48-108 108z"/>
<glyph glyph-name="user-2" unicode="&#57443;" d="M364 40l-304 0c-11 0-20 9-20 20l0 37c0 23 10 45 27 60 20 18 79 59 189 59 82 0 148 66 148 148 0 82-66 148-148 148-82 0-148-66-148-148 0-48 23-90 58-117-64-14-104-42-125-60-26-23-41-55-41-90l0-37c0-33 27-60 60-60l304 0c11 0 20 9 20 20 0 11-9 20-20 20z m-216 324c0 60 48 108 108 108 60 0 108-48 108-108 0-60-48-108-108-108-60 0-108 48-108 108z m316-344c0-11-9-20-20-20-11 0-20 9-20 20 0 11 9 20 20 20 11 0 20-9 20-20z m2 86c-1 0-2-1-2-2l0-14c0-11-9-20-20-20-11 0-20 9-20 20l0 14c0 18 12 35 29 40 12 4 19 16 19 28-1 15-12 26-27 27-8 0-15-3-20-8-6-5-9-12-9-20 0-11-9-20-20-20-11 0-20 9-20 20 0 19 7 36 21 49 13 13 31 20 50 19 35-1 64-30 65-65 1-30-18-58-46-68z"/>
<glyph glyph-name="user-code" unicode="&#57444;" d="M132 40l-71 0c-9 0-14 5-16 8-4 5-6 11-5 17 21 100 109 173 211 175 2 0 3 0 5 0 2 0 3 0 5 0 25 0 49-5 72-14 11-4 22 2 26 12 4 10-1 22-12 26-3 1-6 2-10 3 34 25 55 65 55 109 0 75-61 136-136 136-75 0-136-61-136-136 0-45 21-84 55-109-31-10-59-25-84-46-46-38-78-90-90-148-3-18 1-36 13-51 11-14 28-22 47-22l71 0c11 0 20 9 20 20 0 11-9 20-20 20z m28 336c0 53 43 96 96 96 53 0 96-43 96-96 0-51-41-93-91-96-2 0-3 0-5 0-2 0-3 0-5 0-50 3-91 45-91 96z m337-209c-9 20-28 32-49 32l-63 0c0 0 0 0 0 0-22 0-42-13-50-34-1-3-2-6-4-10l-131 0c-5 0-10-2-14-6l-34-35c-8-8-8-21 0-28l35-36c3-4 9-6 14-6l65 0c11 0 20 9 20 20 0 11-9 20-20 20l-57 0-15 16 15 15 137 0c10 0 18 6 20 15 1 7 3 13 6 21 2 5 7 8 13 8 0 0 0 0 0 0l62 0c6 0 11-3 13-8 6-12 12-31 12-51 0-20-6-39-12-52-2-5-7-8-12-8 0 0 0 0 0 0l-63 0c-6 0-11 4-13 9-3 6-5 12-7 20-2 10-13 17-24 14-10-2-17-13-14-24 2-9 5-18 8-25 8-21 28-34 49-34l64 0c0 0 0 0 0 0 21 0 40 13 49 32 7 16 15 41 15 68 0 28-8 52-15 67z m-46-67c0-11-9-20-20-20-11 0-20 9-20 20 0 11 9 20 20 20 11 0 20-9 20-20z"/>
<glyph glyph-name="video" unicode="&#57445;" d="M502 375c-8 27-29 48-56 55-38 11-175 11-190 11-15 0-151 0-190-10 0 0 0 0 0 0-27-8-48-30-56-56 0 0 0-1 0-1-10-38-10-115-10-118 0-3 0-80 10-119 8-27 29-48 56-55 39-11 175-11 190-11 15 0 151 0 190 10 0 0 0 0 0 0 27 8 48 29 56 56 2 11-4 22-15 25-10 2-21-4-24-15-4-13-14-23-27-27-29-7-140-9-180-9-40 0-151 2-179 9-14 4-24 15-28 28-9 33-9 107-9 108 0 21 2 80 9 108 4 13 14 24 28 28 28 7 139 9 179 9 40 0 151-2 179-9 14-4 24-15 28-28 8-28 9-88 9-108 0 0 0-5 0-13 0-11 8-20 19-20 1-1 1-1 1-1 11 0 20 9 20 20 0 8 0 13 0 14 0 3 0 80-10 119z m-256-35c-13 7-27 7-39 0-13-7-20-19-20-34l0-99c0-15 7-27 20-34 6-4 12-6 19-6 7 0 14 2 20 6l86 50c12 7 19 19 19 33 0 15-7 27-19 34z m-19-132l0 97 83-49z"/>
<glyph glyph-name="video-door-phone" unicode="&#57446;" d="M60 456c-4-2-12-5-17-7-8-4-11-6-19-15-9-9-11-11-15-19-10-19-9-7-9-159 0-151-1-140 9-158 10-20 29-36 51-41 8-2 12-2 196-2 184 0 188 0 196 2 34 8 60 40 60 75 0 8 0 9-2 13-8 13-28 13-35 1-2-3-3-7-4-13 0-6-2-11-3-15-6-12-17-20-31-22-9-2-353-2-362 0-18 2-31 16-34 34-1 10-1 244 0 253 3 18 16 31 34 34 8 1 352 1 361 0 18-3 32-16 35-35 1-3 1-39 1-80l0-75 3-4c3-6 9-9 17-9 8 0 14 3 18 9l2 4 0 81c0 93 0 88-9 107-4 8-6 10-14 19-9 9-12 11-20 15-5 2-13 5-17 7-8 2-12 2-196 1-183 0-189 0-196-1z m101-101c-16-4-33-18-41-33-5-11-6-17-6-28 0-12 2-19 7-29l4-8-7-5c-17-13-29-30-35-51-3-7-3-10-3-17 1-7 1-10 4-14 3-6 8-11 14-15l5-2 149 0 4 2c6 4 11 9 15 15 2 4 3 7 3 14 0 7 0 10-2 17-7 21-19 38-36 51l-7 5 5 8c4 10 6 17 6 29 0 11-1 17-6 28-6 12-17 23-29 28-5 3-11 5-14 5-7 2-23 2-30 0z m25-41c17-7 17-34 0-41-8-3-19-1-25 5-10 11-7 29 7 36 4 2 13 2 18 0z m9-87c9-3 20-10 26-17 4-4 10-15 10-17 0 0-24 0-54 0-30 0-54 0-54 0 0 0 1 3 3 6 9 17 26 28 44 31 8 1 16 0 25-3z m121 127c-6-4-9-10-9-17 0-8 3-14 9-18l5-2 98 0 5 2c6 4 9 10 9 18 0 8-3 13-9 17l-5 3-98 0z m7-71c-5-1-11-5-13-10-2-3-3-6-3-11 0-8 4-14 10-17 5-2 6-2 53-2 47 0 49 0 53 2 7 3 10 9 10 17 0 9-3 14-10 18l-4 3-46 0c-26 0-48 0-50 0z m-7-93c-6-4-9-10-9-17 0-13 8-20 20-20 12 0 20 7 20 20 0 12-8 20-20 20-5 0-7-1-11-3z"/>
<glyph glyph-name="view" unicode="&#57447;" d="M228 445c-54-8-103-33-153-79-25-23-54-59-63-77-5-12-7-18-7-33 0-15 2-21 7-33 8-18 38-54 63-77 49-45 100-71 154-78 16-2 49-2 63 1 42 7 80 25 118 54 16 12 30 25 32 29 3 6 3 11 0 17-3 8-8 11-17 12-7 0-10-1-20-10-37-33-76-54-114-62-28-5-59-3-88 5-49 16-100 54-140 105-14 18-18 26-18 37 0 11 4 20 18 38 40 51 92 89 142 104 32 10 67 11 98 2 29-8 61-25 89-48 29-23 68-68 73-84 3-11 2-22-4-32-5-9-4-18 1-24 8-10 23-10 31-1 4 5 9 16 11 24 3 11 3 31 0 42-5 16-17 35-41 62-51 59-116 97-179 106-13 1-43 1-56 0z m6-79c-39-9-71-37-83-75-6-16-7-34-5-52 4-23 15-45 32-62 14-14 32-24 51-29 8-3 11-3 28-3 17 0 19 0 28 3 12 3 28 11 37 17 29 20 47 56 47 91 0 36-18 71-47 91-9 7-26 14-37 18-13 3-38 4-51 1z m40-40c4-1 10-3 14-5 36-18 51-61 33-97-22-44-80-53-115-18-28 28-28 72 0 101 18 18 43 25 68 19z m-30-34c-11-3-18-10-23-21-2-5-2-7-2-15 0-8 0-10 3-16 4-8 10-15 18-19 6-2 7-2 17-2 10 0 11 0 16 2 9 4 14 10 18 18 4 7 4 8 4 17 0 9 0 10-3 16-4 8-11 15-18 19-8 4-22 4-30 1z"/>
<glyph glyph-name="workshop" unicode="&#57448;" d="M266 0l-20 0c-33 0-60 27-60 60l0 10c0 3-2 5-4 6l-1 0c-2 1-5 1-7-1l-7-7c-11-11-26-18-43-18-16 0-31 7-42 18l-14 14c-11 11-18 26-18 42 0 17 7 32 18 43l7 7c2 2 2 5 1 7l0 1c-1 2-3 4-6 4l-10 0c-33 0-60 27-60 60l0 20c0 33 27 60 60 60l10 0c3 0 5 2 6 4l0 1c1 2 1 5-1 7l-7 7c-11 11-18 26-18 43 0 16 7 31 18 42l14 14c11 11 26 18 42 18 17 0 32-7 43-18l7-7c2-2 5-2 7-1l1 0c2 1 4 3 4 6l0 10c0 33 27 60 60 60l20 0c33 0 60-27 60-60l0-10c0-3 2-5 4-6l1 0c2-1 5-1 7 1l7 7c11 11 26 18 43 18 16 0 31-7 42-18l14-14c11-11 18-26 18-42 0-17-7-32-18-43l-7-7c-2-2-2-5-1-7l0-1c1-2 3-4 6-4l10 0c33 0 60-27 60-60l0-20c0-27-19-51-45-58-11-3-22 4-24 14-3 11 3 22 14 25 9 2 15 10 15 19l0 20c0 11-9 20-20 20l-10 0c-19 0-36 11-43 29l0 0c-8 18-4 38 10 51l7 7c4 4 6 9 6 15 0 5-2 10-6 14l-14 14c-4 4-9 6-14 6-6 0-11-2-15-6l-7-7c-13-14-33-18-51-10l0 0c-18 7-29 24-29 43l0 10c0 11-9 20-20 20l-20 0c-11 0-20-9-20-20l0-10c0-19-11-36-29-43l0 0c-18-8-38-4-51 10l-7 7c-4 4-9 6-15 6-5 0-10-2-14-6l-14-14c-4-4-6-9-6-14 0-6 2-11 6-15l7-7c14-13 18-33 10-51l0 0c-7-18-24-29-43-29l-10 0c-11 0-20-9-20-20l0-20c0-11 9-20 20-20l10 0c19 0 36-11 43-29l0 0c8-18 4-38-10-51l-7-7c-4-4-6-9-6-15 0-5 2-10 6-14l14-14c4-4 9-6 14-6 6 0 11 2 15 6l7 7c13 14 33 18 51 10l0 0c18-7 29-24 29-43l0-10c0-11 9-20 20-20l20 0c9 0 16 6 19 14 3 11 15 16 25 13 11-3 17-14 13-25-8-25-31-42-57-42z m229 18c11 11 17 26 17 42 0 15-6 30-17 41 0 0 0 0 0 0l-130 129c6 13 10 28 10 40 0 26-10 50-29 69-23 23-58 37-94 37 0 0 0 0 0 0-12 0-23-2-35-6-7-2-12-8-13-14-2-7 0-14 5-19l48-49-6-26-25-6-49 49c-5 5-12 7-19 5-7-1-12-6-14-13-5-12-7-24-7-36 0-29 9-59 26-81 20-27 48-42 79-42 1 0 1 0 1 0 11 0 26 3 40 9l129-129c11-11 26-17 41-17 16 0 31 6 42 17z m-220 170c-8-6-24-10-32-10-24 0-39 14-48 25-9 12-15 28-17 44l27-27c5-5 12-7 19-6l48 11c8 2 14 8 15 15l12 49c1 7-1 14-6 19l-26 27c20-3 38-12 51-24 11-12 17-25 17-41 0-8-5-23-11-32-6-8-5-19 2-26l141-139c3-4 5-9 5-13 0-5-2-10-5-14-4-3-9-5-14-5-4 0-9 2-13 5l-139 140c-4 4-9 6-15 6-4 0-8-1-11-4z"/>
</font>
</defs>
</svg>
